<?xml version="1.0" encoding="UTF-8"?>
<svg xmlns="http://www.w3.org/2000/svg" xmlns:xlink="http://www.w3.org/1999/xlink" width="40px" height="40px" viewBox="0 0 40 40" version="1.1">
<g id="surface1">
<path style=" stroke:none;fill-rule:nonzero;fill:rgb(0%,0%,0%);fill-opacity:1;" d="M 18.125 7.859375 C 17.273438 8.078125 16.570312 8.492188 15.890625 9.171875 C 15.203125 9.867188 14.875 10.382812 14.59375 11.210938 C 14.421875 11.734375 14.414062 11.859375 14.414062 14.0625 C 14.414062 16.265625 14.421875 16.390625 14.59375 16.914062 C 14.875 17.742188 15.203125 18.257812 15.890625 18.953125 C 16.578125 19.640625 17.28125 20.046875 18.164062 20.273438 C 18.804688 20.4375 21.195312 20.4375 21.835938 20.273438 C 22.71875 20.046875 23.421875 19.640625 24.109375 18.953125 C 24.796875 18.257812 25.125 17.742188 25.40625 16.914062 C 25.578125 16.390625 25.585938 16.265625 25.585938 14.0625 C 25.585938 11.859375 25.578125 11.734375 25.40625 11.210938 C 25.125 10.382812 24.796875 9.867188 24.109375 9.171875 C 23.421875 8.484375 22.71875 8.078125 21.835938 7.851562 C 21.210938 7.695312 18.742188 7.695312 18.125 7.859375 Z M 22.234375 9.328125 C 23.320312 9.867188 24.0625 10.820312 24.296875 11.976562 C 24.34375 12.226562 24.367188 12.476562 24.34375 12.539062 C 24.273438 12.726562 23.171875 12.914062 22.46875 12.867188 C 21.398438 12.789062 20.578125 12.429688 19.757812 11.671875 C 19.21875 11.179688 18.945312 11.125 18.625 11.445312 C 18.46875 11.601562 18.429688 11.710938 18.453125 11.929688 C 18.476562 12.203125 18.453125 12.242188 18.101562 12.46875 C 17.617188 12.789062 16.820312 13.046875 16.15625 13.101562 L 15.625 13.148438 L 15.625 12.6875 C 15.625 11.0625 16.710938 9.617188 18.320312 9.09375 C 18.539062 9.015625 19.0625 8.992188 20.125 9.007812 L 21.609375 9.023438 Z M 20.195312 13.515625 C 20.398438 13.648438 21.1875 13.921875 21.679688 14.023438 C 22.5 14.195312 23.53125 14.164062 24.242188 13.9375 C 24.367188 13.898438 24.375 13.976562 24.375 14.898438 C 24.375 16.03125 24.242188 16.679688 23.867188 17.3125 C 23.507812 17.921875 22.914062 18.460938 22.21875 18.796875 L 21.601562 19.101562 L 18.390625 19.101562 L 17.765625 18.796875 C 17.351562 18.59375 17.007812 18.34375 16.71875 18.046875 C 15.9375 17.25 15.625 16.429688 15.625 15.148438 L 15.625 14.398438 L 16.234375 14.34375 C 17.273438 14.257812 18.320312 13.875 19.101562 13.296875 L 19.414062 13.070312 L 19.765625 13.265625 C 19.960938 13.375 20.15625 13.484375 20.195312 13.515625 Z M 20.195312 13.515625 "/>
<path style=" stroke:none;fill-rule:nonzero;fill:rgb(0%,0%,0%);fill-opacity:1;" d="M 13.679688 21.132812 C 12.421875 21.320312 11.226562 21.53125 11.023438 21.601562 C 9.5 22.164062 8.304688 23.390625 7.773438 24.929688 L 7.539062 25.585938 L 7.515625 28.710938 C 7.492188 31.8125 7.492188 31.84375 7.65625 32.054688 L 7.820312 32.265625 L 32.179688 32.265625 L 32.34375 32.054688 C 32.507812 31.84375 32.507812 31.8125 32.484375 28.710938 L 32.460938 25.585938 L 32.21875 24.914062 C 31.65625 23.34375 30.4375 22.117188 28.929688 21.601562 C 28.289062 21.390625 23.664062 20.726562 23.34375 20.804688 C 23.179688 20.851562 22.84375 21.320312 21.601562 23.242188 C 20.757812 24.554688 20.03125 25.625 20 25.625 C 19.96875 25.625 19.25 24.554688 18.40625 23.25 C 17.5625 21.945312 16.8125 20.851562 16.75 20.828125 C 16.523438 20.742188 15.992188 20.796875 13.679688 21.132812 Z M 17.859375 24.710938 C 19.679688 27.53125 19.75 27.617188 20.210938 27.453125 C 20.390625 27.390625 21.703125 25.445312 23.8125 22.140625 C 23.851562 22.070312 24.445312 22.132812 26.007812 22.351562 C 27.1875 22.515625 28.273438 22.695312 28.429688 22.742188 C 29.601562 23.117188 30.585938 24.070312 31.03125 25.273438 C 31.195312 25.71875 31.203125 25.882812 31.234375 28.375 L 31.257812 31.015625 L 8.75 31.015625 L 8.75 28.570312 C 8.75 26.640625 8.773438 26.03125 8.867188 25.664062 C 9.171875 24.460938 9.914062 23.523438 10.96875 23.007812 C 11.53125 22.726562 11.6875 22.695312 13.804688 22.382812 C 15.046875 22.195312 16.070312 22.046875 16.09375 22.039062 C 16.117188 22.039062 16.90625 23.234375 17.859375 24.710938 Z M 17.859375 24.710938 "/>
<path style=" stroke:none;fill-rule:nonzero;fill:rgb(0%,0%,0%);fill-opacity:1;" d="M 25.796875 25.257812 C 25.664062 25.398438 25.625 25.539062 25.625 25.835938 L 25.625 26.234375 L 25.179688 26.265625 C 24.820312 26.296875 24.703125 26.34375 24.554688 26.515625 C 24.335938 26.773438 24.328125 27.023438 24.53125 27.289062 C 24.664062 27.460938 24.765625 27.5 25.140625 27.515625 L 25.585938 27.539062 L 25.609375 27.984375 C 25.625 28.359375 25.664062 28.460938 25.835938 28.59375 C 26.101562 28.796875 26.351562 28.789062 26.609375 28.570312 C 26.78125 28.421875 26.828125 28.304688 26.859375 27.945312 L 26.890625 27.5 L 27.3125 27.5 C 27.664062 27.5 27.75 27.46875 27.882812 27.296875 C 28.25 26.828125 27.960938 26.335938 27.273438 26.265625 L 26.890625 26.234375 L 26.859375 25.851562 C 26.789062 25.15625 26.203125 24.828125 25.796875 25.257812 Z M 25.796875 25.257812 "/>
</g>
</svg>
