<?xml version="1.0" encoding="UTF-8"?>
<svg xmlns="http://www.w3.org/2000/svg" xmlns:xlink="http://www.w3.org/1999/xlink" width="50px" height="50px" viewBox="0 0 50 50" version="1.1">
<g id="surface1">
<path style="fill:none;stroke-width:2;stroke-linecap:round;stroke-linejoin:round;stroke:rgb(0%,0%,0%);stroke-opacity:1;stroke-miterlimit:10;" d="M 24 11.5 C 24 13.4325 22.4325 15 20.5 15 C 18.5675 15 17 13.4325 17 11.5 C 17 9.5675 18.5675 8 20.5 8 C 22.4325 8 24 9.5675 24 11.5 Z M 24 11.5 " transform="matrix(1.5625,0,0,1.5625,0,0)"/>
<path style="fill:none;stroke-width:2;stroke-linecap:round;stroke-linejoin:round;stroke:rgb(0%,0%,0%);stroke-opacity:1;stroke-miterlimit:10;" d="M 17.4 13.2 L 15 15.7 C 14.2 16.5 13 16.5 12.2 15.7 L 9.4 12.9 C 8.6 12.1 8.6 10.9 9.4 10.1 L 16.5 3 L 21.8 8.3 " transform="matrix(1.5625,0,0,1.5625,0,0)"/>
<path style="fill:none;stroke-width:2;stroke-linecap:round;stroke-linejoin:round;stroke:rgb(0%,0%,0%);stroke-opacity:1;stroke-miterlimit:10;" d="M 23.8 10.2 C 26.9 11.9 29 15.2 29 19 C 29 24.5 24.5 29 19 29 L 3 29 L 3 27 C 3 25.9 3.9 25 5 25 L 15 25 L 19 29 " transform="matrix(1.5625,0,0,1.5625,0,0)"/>
<path style="fill:none;stroke-width:2;stroke-linecap:round;stroke-linejoin:round;stroke:rgb(0%,0%,0%);stroke-opacity:1;stroke-miterlimit:10;" d="M 22.8 14.1 C 24.3 15.2 25.2 17 25.2 19 C 25.2 22.4 22.4 25 19 25 L 15 25 " transform="matrix(1.5625,0,0,1.5625,0,0)"/>
<path style="fill:none;stroke-width:2;stroke-linecap:round;stroke-linejoin:round;stroke:rgb(0%,0%,0%);stroke-opacity:1;stroke-miterlimit:10;" d="M 12.2 15.7 L 10 17.8 C 9.6 18.2 9 18.2 8.6 17.8 L 7.2 16.4 C 6.8 16 6.8 15.4 7.2 15 L 9.4 12.8 " transform="matrix(1.5625,0,0,1.5625,0,0)"/>
<path style="fill:none;stroke-width:2;stroke-linecap:round;stroke-linejoin:round;stroke:rgb(0%,0%,0%);stroke-opacity:1;stroke-miterlimit:10;" d="M 17.2 3.7 L 18.9 2 C 19.3 1.6 19.9 1.6 20.3 2 L 22.4 4.1 C 22.8 4.5 22.8 5.1 22.4 5.5 L 20.7 7.2 " transform="matrix(1.5625,0,0,1.5625,0,0)"/>
</g>
</svg>
