<?xml version="1.0" encoding="UTF-8"?>
<svg xmlns="http://www.w3.org/2000/svg" xmlns:xlink="http://www.w3.org/1999/xlink" width="40px" height="40px" viewBox="0 0 40 40" version="1.1">
<g id="surface1">
<path style=" stroke:none;fill-rule:nonzero;fill:rgb(0%,0%,0%);fill-opacity:1;" d="M 19.453125 0.046875 C 17.75 0.351562 16.484375 1.484375 16.09375 3.0625 L 16 3.421875 L 13.960938 3.453125 C 11.632812 3.484375 11.5625 3.5 11.015625 4.117188 C 10.679688 4.5 10.546875 4.945312 10.546875 5.703125 L 10.546875 6.171875 L 9.085938 6.171875 C 8.09375 6.171875 7.484375 6.210938 7.21875 6.28125 C 6.039062 6.59375 5.09375 7.554688 4.773438 8.75 C 4.703125 9.015625 4.6875 12.476562 4.703125 23.242188 L 4.726562 37.382812 L 4.914062 37.835938 C 5.304688 38.820312 6.265625 39.648438 7.273438 39.882812 C 7.882812 40.015625 10.929688 40.054688 11.164062 39.921875 C 11.242188 39.882812 11.351562 39.75 11.398438 39.617188 C 11.476562 39.429688 11.476562 39.351562 11.375 39.148438 C 11.304688 39.015625 11.171875 38.890625 11.070312 38.867188 C 10.976562 38.84375 10.140625 38.820312 9.210938 38.8125 L 7.523438 38.789062 L 7.070312 38.554688 C 6.554688 38.289062 6.09375 37.765625 5.945312 37.265625 C 5.882812 37.054688 5.859375 33.179688 5.859375 23.070312 C 5.859375 7.304688 5.796875 8.726562 6.515625 8 C 7.109375 7.414062 7.382812 7.34375 9.117188 7.34375 L 10.546875 7.34375 L 10.546875 8.828125 L 9.296875 8.828125 C 7.789062 8.828125 7.554688 8.890625 7.421875 9.351562 C 7.359375 9.5625 7.34375 13.476562 7.359375 23.257812 L 7.382812 36.875 L 7.601562 37.085938 L 7.8125 37.304688 L 32.1875 37.304688 L 32.398438 37.085938 L 32.617188 36.875 L 32.640625 23.257812 C 32.65625 13.476562 32.640625 9.5625 32.578125 9.351562 C 32.445312 8.890625 32.210938 8.828125 30.703125 8.828125 L 29.453125 8.828125 L 29.453125 7.34375 L 30.882812 7.34375 C 32.617188 7.34375 32.890625 7.414062 33.484375 8 C 34.203125 8.726562 34.140625 7.304688 34.140625 23.070312 C 34.140625 33.179688 34.117188 37.054688 34.054688 37.265625 C 33.90625 37.765625 33.445312 38.289062 32.929688 38.554688 L 32.46875 38.789062 L 22.726562 38.828125 C 13.289062 38.867188 12.976562 38.875 12.820312 39.015625 C 12.578125 39.234375 12.601562 39.632812 12.859375 39.835938 C 13.070312 40 13.078125 40 22.632812 40 C 30.984375 40 32.265625 39.984375 32.726562 39.882812 C 33.734375 39.648438 34.695312 38.820312 35.085938 37.835938 L 35.273438 37.382812 L 35.296875 23.242188 C 35.3125 12.476562 35.296875 9.015625 35.226562 8.75 C 34.90625 7.554688 33.960938 6.59375 32.78125 6.28125 C 32.515625 6.210938 31.90625 6.171875 30.921875 6.171875 L 29.453125 6.171875 L 29.453125 5.703125 C 29.453125 4.945312 29.320312 4.5 28.984375 4.117188 C 28.4375 3.5 28.367188 3.484375 26.039062 3.453125 L 24 3.421875 L 23.90625 3.0625 C 23.578125 1.742188 22.554688 0.648438 21.265625 0.21875 C 20.835938 0.078125 19.820312 -0.015625 19.453125 0.046875 Z M 21.195312 1.46875 C 22.117188 1.898438 22.75 2.789062 22.851562 3.789062 C 22.945312 4.632812 22.84375 4.601562 25.5625 4.625 C 27.859375 4.648438 27.890625 4.648438 28.0625 4.828125 L 28.242188 5.007812 L 28.242188 10.40625 L 28.054688 10.554688 C 27.898438 10.679688 27.742188 10.703125 26.992188 10.703125 C 26.515625 10.703125 26.007812 10.742188 25.867188 10.789062 C 25.445312 10.9375 25.335938 11.375 25.640625 11.695312 C 25.804688 11.867188 25.859375 11.875 26.929688 11.875 C 27.765625 11.875 28.125 11.84375 28.34375 11.75 C 28.90625 11.515625 29.304688 10.992188 29.414062 10.328125 L 29.46875 10 L 31.484375 10 L 31.46875 23.0625 L 31.445312 36.132812 L 8.554688 36.132812 L 8.53125 23.0625 L 8.515625 10 L 10.53125 10 L 10.585938 10.328125 C 10.695312 10.992188 11.09375 11.515625 11.65625 11.75 C 11.914062 11.859375 12.703125 11.875 17.953125 11.875 C 23.578125 11.875 23.96875 11.867188 24.085938 11.734375 C 24.3125 11.484375 24.328125 11.210938 24.117188 10.96875 L 23.921875 10.742188 L 17.976562 10.703125 C 12.40625 10.664062 12.03125 10.65625 11.898438 10.523438 C 11.765625 10.398438 11.757812 10.171875 11.757812 7.695312 L 11.757812 5.007812 L 11.9375 4.828125 C 12.109375 4.648438 12.140625 4.648438 14.4375 4.625 C 17.15625 4.601562 17.054688 4.632812 17.148438 3.789062 C 17.273438 2.585938 18.179688 1.546875 19.351562 1.25 C 19.867188 1.125 20.664062 1.21875 21.195312 1.46875 Z M 21.195312 1.46875 "/>
<path style=" stroke:none;fill-rule:nonzero;fill:rgb(0%,0%,0%);fill-opacity:1;" d="M 19.257812 2.21875 C 18.296875 2.664062 17.929688 3.71875 18.40625 4.671875 C 19.234375 6.34375 21.796875 5.71875 21.796875 3.851562 C 21.796875 3.117188 21.421875 2.53125 20.742188 2.21875 C 20.242188 1.976562 19.757812 1.976562 19.257812 2.21875 Z M 20.429688 3.398438 C 21.015625 3.976562 20.15625 4.84375 19.554688 4.28125 C 19.164062 3.914062 19.460938 3.203125 20 3.203125 C 20.148438 3.203125 20.3125 3.273438 20.429688 3.398438 Z M 20.429688 3.398438 "/>
<path style=" stroke:none;fill-rule:nonzero;fill:rgb(0%,0%,0%);fill-opacity:1;" d="M 14.226562 6.554688 C 13.929688 6.851562 13.898438 8.046875 14.179688 8.359375 C 14.367188 8.5625 14.789062 8.570312 15 8.359375 C 15.132812 8.226562 15.15625 8.101562 15.15625 7.476562 C 15.15625 6.8125 15.140625 6.726562 14.976562 6.578125 C 14.75 6.367188 14.421875 6.359375 14.226562 6.554688 Z M 14.226562 6.554688 "/>
<path style=" stroke:none;fill-rule:nonzero;fill:rgb(0%,0%,0%);fill-opacity:1;" d="M 25.015625 6.585938 C 24.867188 6.742188 24.84375 6.859375 24.84375 7.484375 C 24.84375 8.101562 24.867188 8.226562 25 8.359375 C 25.210938 8.570312 25.632812 8.5625 25.820312 8.359375 C 25.984375 8.179688 26.070312 7.453125 25.984375 6.992188 C 25.875 6.4375 25.359375 6.21875 25.015625 6.585938 Z M 25.015625 6.585938 "/>
<path style=" stroke:none;fill-rule:nonzero;fill:rgb(0%,0%,0%);fill-opacity:1;" d="M 18.28125 7.484375 C 18.148438 7.585938 18.101562 7.710938 18.109375 7.898438 C 18.125 8.4375 19.140625 9.0625 20 9.0625 C 20.859375 9.0625 21.875 8.4375 21.890625 7.898438 C 21.90625 7.351562 21.328125 7.171875 20.820312 7.578125 C 20.664062 7.703125 20.414062 7.828125 20.265625 7.859375 C 19.875 7.929688 19.507812 7.835938 19.179688 7.578125 C 18.84375 7.3125 18.53125 7.28125 18.28125 7.484375 Z M 18.28125 7.484375 "/>
<path style=" stroke:none;fill-rule:nonzero;fill:rgb(0%,0%,0%);fill-opacity:1;" d="M 18.59375 13.726562 C 18.242188 13.859375 18.203125 13.976562 18.203125 14.898438 L 18.203125 15.78125 L 17.34375 15.78125 C 16.53125 15.78125 16.46875 15.789062 16.289062 15.976562 C 16.09375 16.164062 16.09375 16.179688 16.09375 17.5625 C 16.09375 19.40625 16.0625 19.359375 17.289062 19.390625 L 18.164062 19.414062 L 18.1875 20.289062 C 18.21875 21.515625 18.171875 21.484375 20 21.484375 C 21.828125 21.484375 21.78125 21.515625 21.8125 20.289062 L 21.835938 19.414062 L 22.710938 19.390625 C 23.9375 19.359375 23.90625 19.40625 23.90625 17.5625 C 23.90625 16.179688 23.90625 16.164062 23.710938 15.976562 C 23.53125 15.789062 23.46875 15.78125 22.65625 15.78125 L 21.796875 15.78125 L 21.796875 14.898438 C 21.796875 13.664062 21.867188 13.71875 20.085938 13.695312 C 19.328125 13.6875 18.65625 13.703125 18.59375 13.726562 Z M 20.640625 15.710938 C 20.664062 16.546875 20.671875 16.585938 20.882812 16.765625 C 21.085938 16.9375 21.171875 16.953125 21.921875 16.953125 L 22.734375 16.953125 L 22.734375 18.1875 L 21.875 18.21875 C 20.703125 18.25 20.671875 18.28125 20.640625 19.453125 L 20.609375 20.3125 L 19.390625 20.3125 L 19.359375 19.453125 C 19.328125 18.28125 19.296875 18.25 18.125 18.21875 L 17.265625 18.1875 L 17.265625 16.953125 L 18.078125 16.953125 C 18.828125 16.953125 18.914062 16.9375 19.117188 16.765625 C 19.328125 16.585938 19.335938 16.546875 19.359375 15.710938 L 19.390625 14.84375 L 20.609375 14.84375 Z M 20.640625 15.710938 "/>
<path style=" stroke:none;fill-rule:nonzero;fill:rgb(0%,0%,0%);fill-opacity:1;" d="M 13.3125 23.625 C 12.9375 23.789062 12.84375 24.25 13.125 24.53125 C 13.28125 24.6875 13.382812 24.6875 20 24.6875 C 26.617188 24.6875 26.71875 24.6875 26.875 24.53125 C 27.171875 24.234375 27.046875 23.75 26.632812 23.601562 C 26.234375 23.460938 13.632812 23.484375 13.3125 23.625 Z M 13.3125 23.625 "/>
<path style=" stroke:none;fill-rule:nonzero;fill:rgb(0%,0%,0%);fill-opacity:1;" d="M 13.140625 27.289062 C 12.929688 27.515625 12.921875 27.8125 13.117188 28.054688 L 13.265625 28.242188 L 26.734375 28.242188 L 26.882812 28.054688 C 27.085938 27.804688 27.070312 27.484375 26.851562 27.28125 L 26.671875 27.109375 L 13.304688 27.109375 Z M 13.140625 27.289062 "/>
<path style=" stroke:none;fill-rule:nonzero;fill:rgb(0%,0%,0%);fill-opacity:1;" d="M 13.164062 30.820312 C 12.898438 31.078125 12.90625 31.421875 13.171875 31.632812 C 13.382812 31.796875 13.421875 31.796875 20 31.796875 C 26.578125 31.796875 26.617188 31.796875 26.828125 31.632812 C 27.09375 31.421875 27.101562 31.078125 26.835938 30.820312 L 26.648438 30.625 L 13.351562 30.625 Z M 13.164062 30.820312 "/>
</g>
</svg>
