<?xml version="1.0" encoding="UTF-8"?>
<svg xmlns="http://www.w3.org/2000/svg" xmlns:xlink="http://www.w3.org/1999/xlink" width="40px" height="40px" viewBox="0 0 40 40" version="1.1">
<g id="surface1">
<path style=" stroke:none;fill-rule:nonzero;fill:rgb(0%,0%,0%);fill-opacity:1;" d="M 6.445312 1.445312 L 6.25 1.632812 L 6.25 15.609375 L 4.9375 15.632812 L 3.625 15.664062 L 3.03125 15.953125 C 2.320312 16.304688 1.882812 16.757812 1.539062 17.484375 L 1.289062 18.007812 L 1.289062 36.375 L 1.578125 36.96875 C 1.929688 37.679688 2.382812 38.117188 3.109375 38.460938 L 3.632812 38.710938 L 31.367188 38.710938 L 31.890625 38.460938 C 32.851562 38.007812 33.476562 37.1875 33.679688 36.125 C 33.734375 35.875 34.898438 31.585938 36.273438 26.601562 L 38.773438 17.539062 L 38.695312 16.976562 C 38.484375 15.492188 37.375 14.257812 35.898438 13.867188 C 35.539062 13.773438 34.96875 13.75 33.34375 13.75 L 31.25 13.75 L 31.25 4.132812 L 31.054688 3.945312 C 30.875 3.757812 30.828125 3.75 29.804688 3.75 L 28.75 3.75 L 28.75 2.695312 C 28.75 1.671875 28.742188 1.625 28.554688 1.445312 L 28.367188 1.25 L 6.632812 1.25 Z M 27.5 10.625 L 27.5 18.75 L 15.28125 18.75 L 12.140625 15.625 L 7.5 15.625 L 7.5 2.5 L 27.5 2.5 Z M 30 11.875 L 30 18.75 L 28.75 18.75 L 28.75 5 L 30 5 Z M 36.054688 15.234375 C 36.773438 15.585938 37.320312 16.304688 37.460938 17.0625 C 37.507812 17.304688 37.203125 18.507812 35.65625 24.109375 L 33.789062 30.867188 L 33.710938 21.132812 L 33.460938 20.609375 C 33.132812 19.90625 32.679688 19.4375 32.007812 19.101562 C 31.710938 18.953125 31.414062 18.828125 31.359375 18.828125 C 31.265625 18.828125 31.25 18.476562 31.25 16.90625 L 31.25 14.992188 L 33.460938 15.015625 C 35.625 15.039062 35.671875 15.039062 36.054688 15.234375 Z M 13.164062 18.4375 L 14.734375 20 L 22.804688 20 C 28.914062 20 30.960938 20.023438 31.203125 20.09375 C 31.632812 20.21875 32.28125 20.867188 32.40625 21.296875 C 32.539062 21.757812 32.539062 35.742188 32.40625 36.203125 C 32.28125 36.632812 31.632812 37.28125 31.203125 37.40625 C 30.734375 37.539062 4.265625 37.539062 3.796875 37.40625 C 3.367188 37.28125 2.71875 36.632812 2.59375 36.203125 C 2.460938 35.734375 2.460938 18.640625 2.59375 18.171875 C 2.710938 17.773438 3.367188 17.101562 3.75 16.976562 C 3.929688 16.921875 5.289062 16.890625 7.8125 16.882812 L 11.59375 16.875 Z M 13.164062 18.4375 "/>
<path style=" stroke:none;fill-rule:nonzero;fill:rgb(0%,0%,0%);fill-opacity:1;" d="M 13.164062 3.820312 C 12.445312 4.007812 11.8125 4.523438 11.484375 5.195312 C 11.320312 5.539062 11.289062 5.71875 11.265625 6.65625 C 11.234375 7.835938 11.328125 8.335938 11.679688 8.859375 C 11.929688 9.226562 11.929688 9.5625 11.679688 9.804688 C 11.515625 9.976562 11.421875 10 10.929688 10 C 10.132812 10 9.796875 10.125 9.335938 10.585938 C 8.820312 11.09375 8.75 11.359375 8.75 12.6875 L 8.75 13.75 L 10 13.75 L 10 12.695312 C 10 11.671875 10.007812 11.625 10.195312 11.445312 C 10.359375 11.273438 10.453125 11.25 10.992188 11.25 C 11.90625 11.25 12.5625 10.890625 12.914062 10.195312 C 13.03125 9.96875 13.03125 9.96875 13.75 9.960938 L 14.46875 9.960938 L 14.617188 10.242188 C 14.804688 10.617188 15.3125 11.046875 15.695312 11.15625 C 15.859375 11.210938 16.25 11.25 16.554688 11.25 C 17.046875 11.25 17.140625 11.273438 17.304688 11.445312 C 17.492188 11.625 17.5 11.671875 17.5 12.695312 L 17.5 13.75 L 18.75 13.75 L 18.75 12.6875 C 18.75 11.359375 18.679688 11.09375 18.164062 10.585938 C 17.703125 10.125 17.367188 10 16.570312 10 C 16.078125 10 15.984375 9.976562 15.820312 9.804688 C 15.570312 9.5625 15.570312 9.226562 15.820312 8.859375 C 16.171875 8.335938 16.273438 7.828125 16.234375 6.648438 C 16.203125 5.617188 16.195312 5.570312 15.9375 5.09375 C 15.5 4.28125 14.820312 3.84375 13.914062 3.789062 C 13.632812 3.773438 13.296875 3.78125 13.164062 3.820312 Z M 14.4375 5.210938 C 14.921875 5.570312 14.960938 5.695312 14.960938 6.875 C 14.960938 7.84375 14.945312 7.976562 14.796875 8.171875 C 14.492188 8.585938 14.242188 8.710938 13.75 8.710938 C 13.257812 8.710938 13.007812 8.585938 12.703125 8.171875 C 12.5625 7.992188 12.53125 7.820312 12.515625 7.09375 C 12.5 6.625 12.507812 6.117188 12.53125 5.96875 C 12.59375 5.648438 12.921875 5.25 13.242188 5.109375 C 13.554688 4.960938 14.179688 5.015625 14.4375 5.210938 Z M 14.4375 5.210938 "/>
<path style=" stroke:none;fill-rule:nonzero;fill:rgb(0%,0%,0%);fill-opacity:1;" d="M 20.195312 3.945312 C 20 4.132812 20 4.148438 20 5.625 C 20 7.101562 20 7.117188 20.195312 7.304688 L 20.382812 7.5 L 25.867188 7.5 L 26.054688 7.304688 C 26.25 7.117188 26.25 7.101562 26.25 5.625 C 26.25 4.148438 26.25 4.132812 26.054688 3.945312 L 25.867188 3.75 L 20.382812 3.75 Z M 25 5.625 L 25 6.25 L 21.25 6.25 L 21.25 5 L 25 5 Z M 25 5.625 "/>
<path style=" stroke:none;fill-rule:nonzero;fill:rgb(0%,0%,0%);fill-opacity:1;" d="M 20 9.375 L 20 10 L 26.25 10 L 26.25 8.75 L 20 8.75 Z M 20 9.375 "/>
<path style=" stroke:none;fill-rule:nonzero;fill:rgb(0%,0%,0%);fill-opacity:1;" d="M 20 11.875 L 20 12.5 L 26.25 12.5 L 26.25 11.25 L 20 11.25 Z M 20 11.875 "/>
<path style=" stroke:none;fill-rule:nonzero;fill:rgb(0%,0%,0%);fill-opacity:1;" d="M 20 14.375 L 20 15 L 26.25 15 L 26.25 13.75 L 20 13.75 Z M 20 14.375 "/>
<path style=" stroke:none;fill-rule:nonzero;fill:rgb(0%,0%,0%);fill-opacity:1;" d="M 20 16.875 L 20 17.5 L 26.25 17.5 L 26.25 16.25 L 20 16.25 Z M 20 16.875 "/>
<path style=" stroke:none;fill-rule:nonzero;fill:rgb(0%,0%,0%);fill-opacity:1;" d="M 14.570312 22.070312 C 14.375 22.257812 14.375 22.257812 14.375 23.945312 L 14.375 25.625 L 12.695312 25.625 C 11.007812 25.625 11.007812 25.625 10.820312 25.820312 L 10.625 26.007812 L 10.625 31.492188 L 10.820312 31.679688 C 11.007812 31.875 11.007812 31.875 12.695312 31.875 L 14.375 31.875 L 14.375 33.554688 C 14.375 35.242188 14.375 35.242188 14.570312 35.429688 L 14.757812 35.625 L 20.242188 35.625 L 20.429688 35.429688 C 20.625 35.242188 20.625 35.242188 20.625 33.554688 L 20.625 31.875 L 22.304688 31.875 C 23.992188 31.875 23.992188 31.875 24.179688 31.679688 L 24.375 31.492188 L 24.375 26.007812 L 24.179688 25.820312 C 23.992188 25.625 23.992188 25.625 22.304688 25.625 L 20.625 25.625 L 20.625 23.945312 C 20.625 22.257812 20.625 22.257812 20.429688 22.070312 L 20.242188 21.875 L 14.757812 21.875 Z M 19.375 24.804688 C 19.375 26.492188 19.375 26.492188 19.570312 26.679688 C 19.757812 26.875 19.757812 26.875 21.445312 26.875 L 23.125 26.875 L 23.125 30.625 L 21.445312 30.625 C 19.195312 30.625 19.375 30.445312 19.375 32.695312 L 19.375 34.375 L 15.625 34.375 L 15.625 32.695312 C 15.625 30.445312 15.804688 30.625 13.554688 30.625 L 11.875 30.625 L 11.875 26.875 L 13.554688 26.875 C 15.804688 26.875 15.625 27.054688 15.625 24.804688 L 15.625 23.125 L 19.375 23.125 Z M 19.375 24.804688 "/>
</g>
</svg>
