<?xml version="1.0" encoding="UTF-8"?>
<svg xmlns="http://www.w3.org/2000/svg" xmlns:xlink="http://www.w3.org/1999/xlink" width="40px" height="40px" viewBox="0 0 40 40" version="1.1">
<g id="surface1">
<path style=" stroke:none;fill-rule:nonzero;fill:rgb(0%,0%,0%);fill-opacity:1;" d="M 22.460938 1.476562 C 21.773438 1.648438 21.09375 2.179688 20.765625 2.78125 C 20.65625 2.992188 20.023438 4.992188 19.367188 7.226562 L 18.164062 11.28125 L 18.125 9.648438 C 18.09375 8.335938 18.054688 7.960938 17.953125 7.773438 C 17.789062 7.46875 17.515625 7.21875 17.242188 7.117188 C 17.09375 7.054688 15.140625 7.03125 11.226562 7.03125 L 5.429688 7.03125 L 5.125 7.210938 C 4.929688 7.320312 4.75 7.515625 4.632812 7.726562 C 4.460938 8.054688 4.453125 8.140625 4.453125 9.789062 C 4.453125 11.382812 4.46875 11.539062 4.617188 11.851562 C 4.78125 12.1875 5.289062 12.578125 5.570312 12.578125 C 5.679688 12.578125 5.703125 12.65625 5.703125 12.984375 L 5.695312 13.398438 L 5.132812 13.671875 C 4.570312 13.945312 4.5625 13.953125 3.414062 15.46875 C 2.148438 17.140625 1.84375 17.679688 1.71875 18.4375 C 1.664062 18.78125 1.640625 21.726562 1.65625 27.734375 L 1.679688 36.523438 L 1.90625 37.007812 C 2.164062 37.578125 2.710938 38.132812 3.265625 38.382812 L 3.632812 38.554688 L 18.867188 38.554688 L 19.3125 38.34375 C 19.84375 38.09375 20.382812 37.570312 20.585938 37.101562 C 20.664062 36.914062 20.742188 36.75 20.75 36.734375 C 20.757812 36.71875 22.148438 37.125 23.84375 37.625 C 27.375 38.6875 27.625 38.726562 28.476562 38.335938 C 29.046875 38.070312 29.609375 37.539062 29.835938 37.046875 C 29.921875 36.84375 31.890625 30.335938 34.195312 22.578125 C 38.273438 8.859375 38.390625 8.460938 38.390625 7.8125 C 38.398438 7.039062 38.25 6.625 37.765625 6.09375 C 37.164062 5.429688 37.804688 5.65625 28.632812 2.921875 C 23.601562 1.421875 23.109375 1.304688 22.460938 1.476562 Z M 29.914062 4.578125 C 33.703125 5.703125 36.476562 6.5625 36.625 6.664062 C 36.976562 6.898438 37.296875 7.570312 37.25 7.953125 C 37.179688 8.453125 28.820312 36.429688 28.65625 36.703125 C 28.429688 37.078125 27.921875 37.34375 27.453125 37.335938 C 27.203125 37.335938 26.03125 37.023438 23.984375 36.414062 L 20.898438 35.492188 L 20.875 30.335938 L 20.859375 25.171875 L 21.148438 25.117188 C 22.171875 24.929688 22.875 23.992188 22.796875 22.929688 C 22.757812 22.492188 22.679688 22.296875 22.195312 21.390625 C 21.804688 20.671875 21.515625 20.242188 21.257812 19.992188 L 20.882812 19.640625 L 20.84375 18.898438 C 20.78125 17.820312 20.617188 17.476562 19.445312 15.90625 L 18.4375 14.554688 L 20.085938 9.015625 C 21.835938 3.109375 21.835938 3.117188 22.421875 2.804688 C 22.578125 2.71875 22.851562 2.65625 23.078125 2.65625 C 23.34375 2.65625 25.328125 3.210938 29.914062 4.578125 Z M 16.835938 9.804688 L 16.835938 11.367188 L 5.664062 11.367188 L 5.640625 9.882812 C 5.632812 9.070312 5.640625 8.359375 5.65625 8.304688 C 5.6875 8.21875 6.78125 8.203125 11.265625 8.21875 L 16.835938 8.242188 Z M 17.71875 12.757812 C 17.578125 13.25 17.429688 13.59375 17.375 13.59375 C 17.320312 13.59375 17.1875 13.5625 17.078125 13.515625 C 16.890625 13.445312 16.875 13.398438 16.875 13.015625 C 16.875 12.609375 16.882812 12.585938 17.109375 12.539062 C 17.242188 12.507812 17.476562 12.359375 17.640625 12.203125 C 17.796875 12.039062 17.9375 11.914062 17.945312 11.921875 C 17.960938 11.921875 17.859375 12.296875 17.71875 12.757812 Z M 15.664062 13.007812 L 15.664062 13.398438 L 11.273438 13.421875 L 6.875 13.4375 L 6.875 12.578125 L 11.273438 12.59375 L 15.664062 12.617188 Z M 16.875 14.75 C 17.203125 14.90625 19.117188 17.375 19.429688 18.03125 C 19.570312 18.335938 19.640625 18.632812 19.671875 19.109375 L 19.710938 19.765625 L 2.875 19.765625 L 2.90625 19.039062 C 2.9375 18.132812 2.976562 18.0625 4.34375 16.242188 C 5.09375 15.242188 5.476562 14.796875 5.648438 14.726562 C 5.851562 14.632812 6.882812 14.617188 11.25 14.609375 C 16.195312 14.609375 16.625 14.617188 16.875 14.75 Z M 19.671875 27.398438 L 19.6875 33.828125 L 2.890625 33.828125 L 2.890625 20.9375 L 11.273438 20.953125 L 19.648438 20.976562 Z M 21.359375 22.390625 C 21.671875 23.007812 21.6875 23.09375 21.53125 23.476562 C 21.4375 23.695312 21.078125 23.984375 20.898438 23.984375 C 20.875 23.984375 20.859375 23.429688 20.859375 22.757812 C 20.859375 21.375 20.84375 21.390625 21.359375 22.390625 Z M 19.671875 35.523438 C 19.6875 35.789062 19.65625 36.15625 19.609375 36.34375 C 19.492188 36.773438 19.039062 37.226562 18.617188 37.335938 C 18.382812 37.398438 16.21875 37.421875 11.117188 37.40625 L 3.945312 37.382812 L 3.578125 37.171875 C 3.070312 36.867188 2.890625 36.476562 2.890625 35.640625 L 2.890625 35 L 11.273438 35.015625 L 19.648438 35.039062 Z M 19.671875 35.523438 "/>
<path style=" stroke:none;fill-rule:nonzero;fill:rgb(0%,0%,0%);fill-opacity:1;" d="M 23.242188 5.695312 C 22.453125 6.054688 22.007812 6.726562 22 7.59375 C 21.992188 8.09375 22.015625 8.171875 22.539062 9.195312 C 22.90625 9.914062 23.203125 10.382812 23.4375 10.625 C 24.273438 11.476562 25.625 11.453125 26.414062 10.570312 C 26.820312 10.117188 26.984375 9.640625 26.9375 9.03125 C 26.898438 8.59375 26.820312 8.390625 26.320312 7.460938 C 25.6875 6.273438 25.328125 5.851562 24.789062 5.671875 C 24.304688 5.507812 23.632812 5.515625 23.242188 5.695312 Z M 24.585938 6.96875 C 24.851562 7.21875 25.78125 8.992188 25.78125 9.25 C 25.78125 9.578125 25.578125 9.890625 25.265625 10.039062 C 25.023438 10.148438 24.929688 10.15625 24.679688 10.085938 C 24.328125 9.976562 24.234375 9.851562 23.601562 8.640625 C 23.195312 7.875 23.125 7.671875 23.171875 7.46875 C 23.226562 7.203125 23.46875 6.898438 23.710938 6.789062 C 23.953125 6.6875 24.375 6.773438 24.585938 6.96875 Z M 24.585938 6.96875 "/>
<path style=" stroke:none;fill-rule:nonzero;fill:rgb(0%,0%,0%);fill-opacity:1;" d="M 31.226562 7.921875 C 30.46875 8.195312 29.90625 8.851562 29.796875 9.601562 C 29.71875 10.140625 29.867188 10.609375 30.507812 11.789062 C 31.328125 13.296875 31.773438 13.671875 32.773438 13.671875 C 33.320312 13.671875 33.71875 13.523438 34.109375 13.179688 C 34.632812 12.71875 34.796875 12.34375 34.804688 11.640625 L 34.804688 11.054688 L 34.148438 9.820312 C 33.421875 8.445312 33.132812 8.125 32.46875 7.929688 C 31.992188 7.789062 31.617188 7.789062 31.226562 7.921875 Z M 32.375 9.25 C 32.570312 9.375 33.492188 11.054688 33.5625 11.390625 C 33.617188 11.664062 33.4375 12.054688 33.164062 12.234375 C 32.90625 12.398438 32.445312 12.390625 32.210938 12.210938 C 31.921875 12 31.015625 10.257812 31.015625 9.921875 C 31.015625 9.25 31.796875 8.859375 32.375 9.25 Z M 32.375 9.25 "/>
<path style=" stroke:none;fill-rule:nonzero;fill:rgb(0%,0%,0%);fill-opacity:1;" d="M 21.21875 12.609375 C 20.4375 12.90625 19.890625 13.710938 19.898438 14.5625 C 19.898438 14.992188 19.953125 15.15625 20.273438 15.789062 C 21.140625 17.507812 21.40625 17.835938 22.101562 18.085938 C 22.90625 18.367188 23.765625 18.132812 24.34375 17.476562 C 24.710938 17.0625 24.84375 16.679688 24.84375 16.0625 C 24.84375 15.664062 24.78125 15.507812 24.289062 14.546875 C 23.632812 13.265625 23.460938 13.039062 23 12.765625 C 22.554688 12.507812 21.703125 12.429688 21.21875 12.609375 Z M 22.398438 13.820312 C 22.71875 14.015625 23.671875 15.78125 23.671875 16.179688 C 23.671875 16.5 23.507812 16.757812 23.203125 16.914062 C 22.601562 17.226562 22.28125 17 21.617188 15.765625 C 21.070312 14.742188 21.015625 14.515625 21.210938 14.140625 C 21.4375 13.695312 21.960938 13.554688 22.398438 13.820312 Z M 22.398438 13.820312 "/>
<path style=" stroke:none;fill-rule:nonzero;fill:rgb(0%,0%,0%);fill-opacity:1;" d="M 29.15625 14.90625 C 28.289062 15.21875 27.796875 15.867188 27.75 16.789062 C 27.71875 17.296875 27.726562 17.320312 28.3125 18.484375 C 28.984375 19.835938 29.320312 20.21875 30.007812 20.421875 C 30.515625 20.578125 30.726562 20.578125 31.21875 20.429688 C 32.0625 20.179688 32.65625 19.375 32.65625 18.46875 C 32.65625 18.023438 32.609375 17.890625 32.078125 16.828125 C 31.3125 15.28125 30.929688 14.921875 29.953125 14.804688 C 29.679688 14.773438 29.453125 14.804688 29.15625 14.90625 Z M 30.34375 16.1875 C 30.679688 16.5 31.421875 17.960938 31.460938 18.40625 C 31.5 18.765625 31.484375 18.820312 31.25 19.046875 C 31.046875 19.25 30.945312 19.296875 30.664062 19.296875 C 30.195312 19.296875 30.03125 19.125 29.4375 18.046875 C 28.835938 16.945312 28.789062 16.609375 29.203125 16.242188 C 29.53125 15.945312 30.046875 15.921875 30.34375 16.1875 Z M 30.34375 16.1875 "/>
<path style=" stroke:none;fill-rule:nonzero;fill:rgb(0%,0%,0%);fill-opacity:1;" d="M 26.828125 21.984375 C 26.0625 22.335938 25.546875 23.242188 25.65625 24.054688 C 25.703125 24.460938 26.523438 26.125 26.953125 26.695312 C 27.351562 27.234375 27.851562 27.460938 28.59375 27.460938 C 29.257812 27.453125 29.632812 27.304688 30.054688 26.859375 C 30.570312 26.328125 30.773438 25.382812 30.523438 24.71875 C 30.320312 24.195312 29.398438 22.609375 29.148438 22.359375 C 28.570312 21.773438 27.609375 21.617188 26.828125 21.984375 Z M 28.117188 23.078125 C 28.4375 23.25 29.375 25 29.375 25.4375 C 29.375 26.28125 28.328125 26.585938 27.835938 25.890625 C 27.546875 25.484375 26.796875 23.984375 26.796875 23.820312 C 26.796875 23.601562 27 23.234375 27.203125 23.09375 C 27.421875 22.9375 27.828125 22.9375 28.117188 23.078125 Z M 28.117188 23.078125 "/>
<path style=" stroke:none;fill-rule:nonzero;fill:rgb(0%,0%,0%);fill-opacity:1;" d="M 25.15625 28.773438 C 24.164062 29.046875 23.59375 29.804688 23.59375 30.828125 C 23.59375 31.203125 23.664062 31.390625 24.15625 32.34375 C 24.820312 33.632812 25 33.875 25.554688 34.179688 C 25.90625 34.367188 26.070312 34.40625 26.523438 34.40625 C 26.992188 34.40625 27.140625 34.375 27.5 34.171875 C 28.234375 33.757812 28.65625 32.960938 28.570312 32.125 C 28.515625 31.578125 27.484375 29.679688 27.015625 29.257812 C 26.476562 28.765625 25.804688 28.59375 25.15625 28.773438 Z M 25.984375 29.96875 C 26.203125 30.070312 26.34375 30.265625 26.765625 31.046875 C 27.328125 32.085938 27.414062 32.375 27.265625 32.734375 C 27.078125 33.1875 26.382812 33.351562 25.992188 33.046875 C 25.742188 32.84375 24.765625 31.015625 24.765625 30.742188 C 24.765625 30.445312 24.992188 30.101562 25.265625 29.96875 C 25.570312 29.8125 25.65625 29.8125 25.984375 29.96875 Z M 25.984375 29.96875 "/>
<path style=" stroke:none;fill-rule:nonzero;fill:rgb(0%,0%,0%);fill-opacity:1;" d="M 8.90625 9.632812 C 8.5 9.84375 8.5 10.453125 8.914062 10.664062 C 9.109375 10.773438 9.445312 10.789062 11.0625 10.765625 C 12.976562 10.742188 12.984375 10.742188 13.132812 10.554688 C 13.320312 10.320312 13.320312 9.992188 13.132812 9.757812 C 12.984375 9.570312 12.976562 9.570312 11.039062 9.546875 C 9.585938 9.53125 9.054688 9.554688 8.90625 9.632812 Z M 8.90625 9.632812 "/>
<path style=" stroke:none;fill-rule:nonzero;fill:rgb(0%,0%,0%);fill-opacity:1;" d="M 14.367188 9.757812 C 14.09375 10.039062 14.078125 10.234375 14.328125 10.523438 C 14.5 10.726562 14.5625 10.742188 15.078125 10.742188 C 15.59375 10.742188 15.65625 10.726562 15.828125 10.523438 C 16.078125 10.234375 16.0625 10.039062 15.789062 9.757812 C 15.585938 9.554688 15.507812 9.53125 15.078125 9.53125 C 14.648438 9.53125 14.570312 9.554688 14.367188 9.757812 Z M 14.367188 9.757812 "/>
<path style=" stroke:none;fill-rule:nonzero;fill:rgb(0%,0%,0%);fill-opacity:1;" d="M 9.210938 21.945312 C 9.023438 22.09375 9.023438 22.125 9 23.625 L 8.976562 25.15625 L 7.492188 25.15625 C 6.117188 25.15625 6.007812 25.164062 5.859375 25.3125 C 5.710938 25.460938 5.703125 25.570312 5.703125 27.414062 L 5.703125 29.367188 L 5.90625 29.523438 C 6.101562 29.679688 6.21875 29.6875 7.546875 29.6875 L 8.984375 29.6875 L 8.984375 31.125 C 8.984375 32.453125 8.992188 32.570312 9.148438 32.765625 L 9.304688 32.96875 L 11.25 32.96875 C 13.148438 32.96875 13.203125 32.960938 13.359375 32.796875 C 13.507812 32.640625 13.515625 32.53125 13.515625 31.15625 L 13.515625 29.6875 L 14.921875 29.6875 C 16.414062 29.6875 16.640625 29.640625 16.789062 29.320312 C 16.84375 29.203125 16.875 28.484375 16.875 27.335938 L 16.875 25.539062 L 16.679688 25.351562 C 16.492188 25.15625 16.476562 25.15625 15 25.15625 L 13.515625 25.15625 L 13.515625 23.671875 C 13.515625 22.195312 13.515625 22.179688 13.320312 21.992188 L 13.132812 21.796875 L 11.265625 21.796875 C 9.539062 21.796875 9.375 21.804688 9.210938 21.945312 Z M 12.34375 24.445312 C 12.34375 26.429688 12.195312 26.28125 14.15625 26.328125 L 15.664062 26.367188 L 15.6875 27.398438 L 15.710938 28.4375 L 14.296875 28.4375 C 12.828125 28.4375 12.507812 28.5 12.390625 28.789062 C 12.367188 28.859375 12.34375 29.570312 12.34375 30.359375 L 12.34375 31.796875 L 10.25 31.796875 L 10.21875 30.3125 C 10.1875 28.34375 10.328125 28.484375 8.359375 28.453125 L 6.875 28.429688 L 6.875 26.328125 L 8.328125 26.328125 C 9.125 26.328125 9.84375 26.296875 9.921875 26.25 C 10.171875 26.117188 10.234375 25.726562 10.234375 24.328125 L 10.234375 22.96875 L 12.34375 22.96875 Z M 12.34375 24.445312 "/>
</g>
</svg>
