<?xml version="1.0" encoding="UTF-8"?>
<svg xmlns="http://www.w3.org/2000/svg" xmlns:xlink="http://www.w3.org/1999/xlink" width="28px" height="40px" viewBox="0 0 28 39" version="1.1">
<g id="surface1">
<path style=" stroke:none;fill-rule:nonzero;fill:rgb(0%,0%,0%);fill-opacity:1;" d="M 21.449219 12.769531 C 23.421875 13.449219 25.582031 12.429688 26.273438 10.488281 C 26.96875 8.546875 25.929688 6.421875 23.957031 5.742188 C 21.984375 5.0625 19.824219 6.082031 19.132812 8.023438 C 18.441406 9.960938 19.480469 12.089844 21.449219 12.769531 Z M 21.449219 12.769531 "/>
<path style=" stroke:none;fill-rule:nonzero;fill:rgb(0%,0%,0%);fill-opacity:1;" d="M 18.554688 28.289062 C 18.742188 28.304688 18.917969 28.320312 19.082031 28.328125 C 19.203125 28.351562 19.332031 28.363281 19.460938 28.363281 C 20.960938 28.359375 22.15625 28.679688 22.855469 29.25 C 23.214844 29.539062 23.5 29.890625 23.734375 30.441406 C 23.964844 30.988281 24.128906 31.753906 24.128906 32.800781 C 24.128906 33.699219 24.007812 34.808594 23.710938 36.128906 C 23.484375 37.15625 24.144531 38.171875 25.1875 38.398438 C 25.328125 38.425781 25.464844 38.441406 25.605469 38.441406 C 26.492188 38.441406 27.292969 37.835938 27.492188 36.945312 C 27.832031 35.410156 28 34.039062 28 32.800781 C 28 31.363281 27.773438 30.09375 27.3125 28.988281 C 26.898438 27.988281 26.273438 27.148438 25.53125 26.496094 C 25.222656 26.773438 24.816406 26.929688 24.394531 26.929688 C 23.976562 26.929688 23.574219 26.777344 23.265625 26.5 C 22.589844 25.90625 22.015625 25.304688 21.519531 24.714844 C 21.335938 24.683594 21.148438 24.660156 20.964844 24.640625 C 20.980469 24.457031 21 24.277344 21.027344 24.09375 C 18.859375 21.210938 18.597656 18.613281 18.609375 17.464844 C 18.609375 16.34375 18.824219 15.617188 18.867188 15.480469 C 19.09375 14.792969 19.734375 14.328125 20.46875 14.328125 C 20.644531 14.328125 20.816406 14.355469 20.984375 14.410156 C 21.855469 14.683594 22.347656 15.609375 22.078125 16.472656 L 22.074219 16.484375 C 22.066406 16.519531 22.050781 16.582031 22.039062 16.664062 C 22.007812 16.832031 21.972656 17.109375 21.972656 17.464844 C 21.980469 18.058594 22.066406 18.644531 22.230469 19.226562 C 22.40625 18.683594 22.578125 18.167969 22.726562 17.695312 C 23.386719 16.109375 22.976562 14.082031 21.589844 13.578125 C 20.199219 13.074219 18.046875 13.613281 16.9375 15.933594 C 15.429688 19.132812 14.945312 21.265625 14.972656 24.96875 C 15.203125 27.671875 17.019531 28.144531 18.554688 28.289062 Z M 18.554688 28.289062 "/>
<path style=" stroke:none;fill-rule:nonzero;fill:rgb(0%,0%,0%);fill-opacity:1;" d="M 21.707031 16.605469 C 21.722656 16.511719 21.738281 16.445312 21.746094 16.40625 C 21.753906 16.390625 21.753906 16.378906 21.757812 16.375 C 21.972656 15.683594 21.582031 14.945312 20.878906 14.722656 C 20.171875 14.5 19.414062 14.886719 19.1875 15.582031 C 19.15625 15.683594 18.945312 16.371094 18.945312 17.46875 C 18.929688 18.957031 19.363281 21.210938 21.09375 23.625 C 21.375 24.019531 21.691406 24.414062 22.046875 24.816406 C 22.472656 25.292969 22.949219 25.777344 23.492188 26.257812 C 23.75 26.484375 24.074219 26.597656 24.394531 26.597656 C 24.707031 26.597656 25.019531 26.492188 25.269531 26.277344 C 25.3125 26.242188 25.355469 26.207031 25.394531 26.164062 C 25.890625 25.621094 25.851562 24.785156 25.300781 24.292969 C 23.4375 22.621094 22.511719 21.070312 22.054688 19.785156 C 21.722656 18.851562 21.644531 18.058594 21.636719 17.46875 C 21.636719 17.089844 21.671875 16.792969 21.707031 16.605469 Z M 21.707031 16.605469 "/>
<path style=" stroke:none;fill-rule:nonzero;fill:rgb(0%,0%,0%);fill-opacity:1;" d="M 1.8125 23.449219 L 2.273438 36.972656 C 2.3125 38.09375 3.246094 38.976562 4.375 38.976562 C 4.398438 38.976562 4.421875 38.972656 4.445312 38.972656 C 5.605469 38.933594 6.515625 37.980469 6.476562 36.835938 L 5.988281 22.503906 C 6.03125 22.222656 6.050781 21.886719 6.050781 21.484375 C 5.890625 19.539062 6.300781 17.40625 6.765625 15.515625 C 6.226562 15.21875 5.78125 14.921875 5.421875 14.648438 C 3.835938 13.460938 3.332031 12.34375 3.277344 12.222656 C 3.101562 11.816406 3.09375 11.367188 3.261719 10.957031 C 3.425781 10.546875 3.746094 10.222656 4.160156 10.050781 C 4.371094 9.957031 4.59375 9.914062 4.824219 9.914062 C 5.480469 9.914062 6.082031 10.292969 6.351562 10.878906 L 6.359375 10.890625 C 6.375 10.917969 6.421875 10.988281 6.503906 11.101562 C 6.667969 11.3125 6.96875 11.644531 7.464844 12.023438 C 7.511719 12.054688 7.5625 12.089844 7.609375 12.125 C 7.75 10.746094 7.1875 9.359375 6.035156 9.011719 C 4.621094 8.582031 2.5 9.238281 1.523438 11.613281 C 0.195312 14.886719 -0.167969 17.042969 0.0664062 20.738281 C 0.28125 22.273438 0.972656 23.050781 1.8125 23.449219 Z M 1.8125 23.449219 "/>
<path style=" stroke:none;fill-rule:nonzero;fill:rgb(0%,0%,0%);fill-opacity:1;" d="M 19.804688 38.664062 L 21.496094 38.664062 L 20.800781 30.675781 L 20.800781 29.28125 L 13.203125 29.28125 L 13.203125 30.675781 L 12.507812 38.664062 L 14.195312 38.664062 L 14.519531 34.9375 L 19.484375 34.9375 Z M 14.582031 34.222656 L 14.867188 30.9375 L 19.132812 30.9375 L 19.421875 34.222656 Z M 14.582031 34.222656 "/>
<path style=" stroke:none;fill-rule:nonzero;fill:rgb(0%,0%,0%);fill-opacity:1;" d="M 14.84375 14.929688 C 14.84375 14.929688 14.84375 14.933594 14.847656 14.9375 C 14.414062 14.1875 13.527344 13.039062 11.761719 11.691406 C 11.757812 11.679688 11.753906 11.664062 11.75 11.652344 C 10.949219 9.875 10.480469 8.253906 10.210938 7.011719 C 10.550781 6.652344 10.824219 6.21875 11.003906 5.726562 C 11.292969 4.933594 11.289062 4.109375 11.050781 3.359375 C 11.566406 3.101562 11.945312 2.601562 12.015625 1.992188 C 12.128906 1.023438 11.421875 0.148438 10.4375 0.0351562 C 9.6875 -0.046875 8.996094 0.335938 8.65625 0.949219 C 7.628906 0.605469 6.550781 0.722656 5.65625 1.1875 L 8.464844 1.507812 C 8.457031 1.535156 8.453125 1.5625 8.449219 1.589844 C 8.425781 1.789062 8.4375 1.988281 8.480469 2.175781 L 4.84375 1.765625 C 4.421875 2.15625 4.085938 2.644531 3.875 3.21875 C 3.171875 5.15625 4.199219 7.289062 6.167969 7.980469 C 6.488281 8.09375 6.816406 8.160156 7.140625 8.183594 C 7.890625 9.296875 8.996094 10.554688 10.601562 11.671875 C 12.019531 12.652344 12.9375 13.535156 13.53125 14.242188 C 13.601562 14.25 13.667969 14.261719 13.738281 14.273438 C 14.183594 14.339844 14.574219 14.574219 14.84375 14.929688 Z M 8.84375 1.65625 C 8.847656 1.621094 8.855469 1.585938 8.859375 1.550781 C 8.894531 1.386719 8.953125 1.234375 9.039062 1.097656 C 9.3125 0.65625 9.832031 0.382812 10.390625 0.449219 C 11.152344 0.535156 11.703125 1.214844 11.613281 1.96875 C 11.5625 2.421875 11.289062 2.796875 10.917969 3.003906 C 10.667969 3.144531 10.375 3.210938 10.070312 3.175781 C 9.503906 3.109375 9.058594 2.722656 8.898438 2.222656 C 8.84375 2.042969 8.820312 1.851562 8.84375 1.65625 Z M 7.945312 8.164062 C 8.554688 8.082031 9.136719 7.855469 9.632812 7.507812 C 9.863281 8.484375 10.207031 9.65625 10.714844 10.933594 C 9.492188 10.039062 8.59375 9.0625 7.945312 8.164062 Z M 7.945312 8.164062 "/>
<path style=" stroke:none;fill-rule:nonzero;fill:rgb(0%,0%,0%);fill-opacity:1;" d="M 15.167969 15.859375 C 15.171875 15.957031 15.167969 16.058594 15.152344 16.160156 C 15.082031 16.625 14.808594 17.023438 14.433594 17.277344 C 14.550781 17.445312 14.714844 17.570312 14.910156 17.636719 C 15.527344 17.839844 16.519531 14.9375 15.902344 14.734375 C 15.558594 14.621094 15.183594 14.71875 14.871094 14.96875 C 14.964844 15.101562 15.039062 15.25 15.089844 15.398438 C 15.136719 15.546875 15.164062 15.703125 15.167969 15.859375 Z M 15.167969 15.859375 "/>
<path style=" stroke:none;fill-rule:nonzero;fill:rgb(0%,0%,0%);fill-opacity:1;" d="M 6.234375 11.300781 C 6.148438 11.183594 6.09375 11.097656 6.066406 11.054688 C 6.054688 11.035156 6.050781 11.019531 6.046875 11.015625 C 5.742188 10.363281 4.964844 10.066406 4.292969 10.351562 C 3.609375 10.640625 3.292969 11.421875 3.589844 12.09375 C 3.660156 12.265625 4.164062 13.289062 5.625 14.386719 C 5.976562 14.652344 6.382812 14.921875 6.847656 15.183594 C 8.320312 16.015625 10.398438 16.792969 13.289062 17.21875 C 13.355469 17.230469 13.421875 17.234375 13.488281 17.234375 C 13.78125 17.234375 14.054688 17.140625 14.277344 16.984375 C 14.558594 16.78125 14.761719 16.472656 14.820312 16.109375 C 14.828125 16.046875 14.832031 15.988281 14.832031 15.929688 C 14.835938 15.667969 14.761719 15.417969 14.628906 15.207031 C 14.453125 14.933594 14.179688 14.722656 13.84375 14.636719 C 13.792969 14.621094 13.742188 14.609375 13.691406 14.601562 C 10.546875 14.132812 8.664062 13.25 7.554688 12.492188 C 7.449219 12.421875 7.351562 12.351562 7.261719 12.285156 C 6.730469 11.882812 6.414062 11.53125 6.234375 11.300781 Z M 6.234375 11.300781 "/>
</g>
</svg>
