<?xml version="1.0" encoding="UTF-8"?>
<svg xmlns="http://www.w3.org/2000/svg" xmlns:xlink="http://www.w3.org/1999/xlink" width="40px" height="40px" viewBox="0 0 40 40" version="1.1">
<g id="surface1">
<path style=" stroke:none;fill-rule:nonzero;fill:rgb(50.196078%,50.196078%,50.196078%);fill-opacity:1;" d="M 24.96875 4.601562 C 26.554688 4.085938 28.246094 4.351562 29.667969 5.335938 L 29.671875 5.335938 C 29.683594 5.34375 29.695312 5.351562 29.707031 5.363281 L 31 6.257812 C 31.027344 6.273438 31.054688 6.292969 31.082031 6.3125 C 33.988281 8.375 34.992188 12.84375 33.339844 16.378906 C 33.320312 16.425781 33.300781 16.46875 33.273438 16.511719 C 31.542969 20.015625 27.789062 21.199219 24.84375 19.171875 L 24.84375 19.167969 L 24.84375 19.171875 C 24.824219 19.160156 24.808594 19.148438 24.792969 19.132812 C 22.820312 17.769531 21.285156 16.8125 20.59375 13.703125 C 20.164062 11.796875 20.386719 9.769531 21.207031 8.058594 C 22.027344 6.351562 23.382812 5.105469 24.96875 4.601562 Z M 24.96875 4.601562 "/>
<path style=" stroke:none;fill-rule:nonzero;fill:rgb(50.196078%,50.196078%,50.196078%);fill-opacity:1;" d="M 32.789062 30.15625 C 33.671875 34.109375 31.699219 38.207031 28.40625 39.265625 L 26.878906 39.757812 C 23.585938 40.816406 20.171875 38.449219 19.289062 34.496094 C 18.40625 30.542969 20.378906 26.441406 23.671875 25.386719 L 25.199219 24.894531 C 28.492188 23.835938 31.90625 26.203125 32.789062 30.15625 Z M 32.789062 30.15625 "/>
<path style=" stroke:none;fill-rule:nonzero;fill:rgb(20%,20%,20%);fill-opacity:1;" d="M 18.703125 0.253906 C 20.289062 -0.257812 21.980469 0.0078125 23.402344 0.992188 C 23.417969 1 23.429688 1.007812 23.441406 1.015625 L 31.042969 6.285156 C 33.996094 8.34375 35.003906 12.886719 33.296875 16.441406 C 31.585938 19.992188 27.804688 21.214844 24.84375 19.171875 C 24.824219 19.160156 24.808594 19.148438 24.792969 19.132812 L 17.207031 13.878906 L 17.203125 13.878906 C 17.191406 13.871094 17.179688 13.859375 17.164062 13.847656 C 15.015625 12.328125 13.835938 9.40625 14.171875 6.4375 C 14.507812 3.472656 16.292969 1.035156 18.703125 0.257812 Z M 19.023438 1.703125 C 17.101562 2.324219 15.675781 4.269531 15.40625 6.640625 C 15.140625 9.007812 16.082031 11.339844 17.796875 12.558594 C 17.808594 12.566406 17.820312 12.570312 17.828125 12.578125 L 17.828125 12.582031 L 25.414062 17.839844 C 25.433594 17.851562 25.449219 17.859375 25.46875 17.875 C 27.835938 19.507812 30.855469 18.53125 32.222656 15.691406 C 33.585938 12.855469 32.777344 9.222656 30.414062 7.582031 L 22.816406 2.3125 C 22.804688 2.304688 22.792969 2.296875 22.777344 2.289062 L 22.78125 2.289062 L 22.777344 2.289062 L 22.78125 2.285156 C 21.640625 1.5 20.292969 1.289062 19.023438 1.703125 Z M 19.023438 1.703125 "/>
<path style=" stroke:none;fill-rule:nonzero;fill:rgb(20%,20%,20%);fill-opacity:1;" d="M 38.574219 28.292969 C 37.871094 25.136719 35.140625 23.246094 32.511719 24.09375 L 23.996094 26.832031 C 21.363281 27.679688 19.789062 30.953125 20.496094 34.109375 C 21.210938 37.273438 23.917969 39.152344 26.558594 38.3125 L 35.074219 35.570312 C 37.703125 34.726562 39.28125 31.449219 38.574219 28.292969 Z M 39.78125 27.90625 C 40.664062 31.859375 38.691406 35.960938 35.398438 37.019531 L 26.878906 39.757812 C 25.234375 40.289062 23.554688 39.960938 22.179688 39.007812 C 20.753906 38.023438 19.714844 36.402344 19.289062 34.496094 C 18.40625 30.542969 20.378906 26.445312 23.671875 25.386719 L 32.191406 22.644531 C 35.484375 21.585938 38.898438 23.953125 39.78125 27.90625 Z M 39.78125 27.90625 "/>
<path style=" stroke:none;fill-rule:nonzero;fill:rgb(20%,20%,20%);fill-opacity:1;" d="M 13.492188 17.902344 C 16.160156 21.101562 16.570312 26.117188 14.476562 29.882812 C 12.382812 33.644531 8.363281 35.109375 4.878906 33.375 C 1.394531 31.644531 -0.582031 27.199219 0.152344 22.757812 C 0.886719 18.320312 4.132812 15.121094 7.90625 15.121094 C 10 15.117188 12.011719 16.117188 13.492188 17.902344 Z M 14.558594 24.609375 C 14.558594 20.800781 12.316406 17.519531 9.203125 16.777344 C 6.089844 16.035156 2.972656 18.035156 1.757812 21.554688 C 0.542969 25.074219 1.570312 29.136719 4.207031 31.253906 C 6.847656 33.371094 10.367188 32.953125 12.609375 30.257812 C 13.859375 28.761719 14.5625 26.730469 14.558594 24.609375 Z M 14.558594 24.609375 "/>
<path style=" stroke:none;fill-rule:nonzero;fill:rgb(20%,20%,20%);fill-opacity:1;" d="M 3.199219 17.902344 C 2.953125 17.609375 2.558594 17.609375 2.316406 17.902344 C 2.070312 18.195312 2.070312 18.667969 2.316406 18.960938 L 12.609375 31.320312 C 12.855469 31.613281 13.25 31.613281 13.492188 31.320312 C 13.738281 31.027344 13.738281 30.550781 13.492188 30.257812 Z M 3.199219 17.902344 "/>
</g>
</svg>
