<?xml version="1.0" encoding="utf-8"?>
<!-- Generator: Adobe Illustrator 25.4.1, SVG Export Plug-In . SVG Version: 6.00 Build 0)  -->
<svg version="1.1" id="Calque_1" xmlns="http://www.w3.org/2000/svg" xmlns:xlink="http://www.w3.org/1999/xlink" x="0px" y="0px"
	 viewBox="0 0 40 40" style="enable-background:new 0 0 40 40;" xml:space="preserve">
<style type="text/css">
	.st0{fill:#EDDDDD;}
</style>
<g id="surface1">
	<path class="st0" d="M6.4,1.4L6.2,1.6v14l-1.3,0l-1.3,0L3,16c-0.7,0.4-1.1,0.8-1.5,1.5L1.3,18v18.4L1.6,37c0.4,0.7,0.8,1.1,1.5,1.5
		l0.5,0.2h27.7l0.5-0.2c1-0.5,1.6-1.3,1.8-2.3c0.1-0.2,1.2-4.5,2.6-9.5l2.5-9.1L38.7,17c-0.2-1.5-1.3-2.7-2.8-3.1
		c-0.4-0.1-0.9-0.1-2.6-0.1h-2.1V4.1l-0.2-0.2c-0.2-0.2-0.2-0.2-1.2-0.2h-1.1V2.7c0-1,0-1.1-0.2-1.2l-0.2-0.2H6.6L6.4,1.4z
		 M27.5,10.6v8.1H15.3l-3.1-3.1H7.5V2.5h20V10.6z M30,11.9v6.9h-1.2V5H30V11.9z M36.1,15.2c0.7,0.4,1.3,1.1,1.4,1.8
		c0,0.2-0.3,1.4-1.8,7l-1.9,6.8l-0.1-9.7l-0.2-0.5c-0.3-0.7-0.8-1.2-1.5-1.5c-0.3-0.1-0.6-0.3-0.6-0.3c-0.1,0-0.1-0.4-0.1-1.9V15
		l2.2,0C35.6,15,35.7,15,36.1,15.2z M13.2,18.4l1.6,1.6h8.1c6.1,0,8.2,0,8.4,0.1c0.4,0.1,1.1,0.8,1.2,1.2c0.1,0.5,0.1,14.4,0,14.9
		c-0.1,0.4-0.8,1.1-1.2,1.2c-0.5,0.1-26.9,0.1-27.4,0c-0.4-0.1-1.1-0.8-1.2-1.2c-0.1-0.5-0.1-17.6,0-18c0.1-0.4,0.8-1.1,1.2-1.2
		c0.2-0.1,1.5-0.1,4.1-0.1l3.8,0L13.2,18.4z"/>
	<path class="st0" d="M13.2,3.8c-0.7,0.2-1.4,0.7-1.7,1.4c-0.2,0.3-0.2,0.5-0.2,1.5c0,1.2,0.1,1.7,0.4,2.2c0.2,0.4,0.2,0.7,0,0.9
		C11.5,10,11.4,10,10.9,10c-0.8,0-1.1,0.1-1.6,0.6c-0.5,0.5-0.6,0.8-0.6,2.1v1.1H10v-1.1c0-1,0-1.1,0.2-1.2c0.2-0.2,0.3-0.2,0.8-0.2
		c0.9,0,1.6-0.4,1.9-1.1C13,10,13,10,13.8,10h0.7l0.1,0.3c0.2,0.4,0.7,0.8,1.1,0.9c0.2,0.1,0.6,0.1,0.9,0.1c0.5,0,0.6,0,0.8,0.2
		c0.2,0.2,0.2,0.2,0.2,1.2v1.1h1.2v-1.1c0-1.3-0.1-1.6-0.6-2.1c-0.5-0.5-0.8-0.6-1.6-0.6c-0.5,0-0.6,0-0.8-0.2
		c-0.2-0.2-0.2-0.6,0-0.9c0.4-0.5,0.5-1,0.4-2.2c0-1,0-1.1-0.3-1.6c-0.4-0.8-1.1-1.2-2-1.3C13.6,3.8,13.3,3.8,13.2,3.8z M14.4,5.2
		C14.9,5.6,15,5.7,15,6.9c0,1,0,1.1-0.2,1.3c-0.3,0.4-0.6,0.5-1,0.5s-0.7-0.1-1-0.5c-0.1-0.2-0.2-0.4-0.2-1.1c0-0.5,0-1,0-1.1
		c0.1-0.3,0.4-0.7,0.7-0.9C13.6,5,14.2,5,14.4,5.2z"/>
	<path class="st0" d="M20.2,3.9C20,4.1,20,4.1,20,5.6s0,1.5,0.2,1.7l0.2,0.2h5.5l0.2-0.2c0.2-0.2,0.2-0.2,0.2-1.7s0-1.5-0.2-1.7
		l-0.2-0.2h-5.5L20.2,3.9z M25,5.6v0.6h-3.8V5H25V5.6z"/>
	<path class="st0" d="M20,9.4V10h6.2V8.7H20V9.4z"/>
	<path class="st0" d="M20,11.9v0.6h6.2v-1.2H20V11.9z"/>
	<path class="st0" d="M20,14.4V15h6.2v-1.2H20V14.4z"/>
	<path class="st0" d="M20,16.9v0.6h6.2v-1.2H20V16.9z"/>
	<path class="st0" d="M14.6,22.1c-0.2,0.2-0.2,0.2-0.2,1.9v1.7h-1.7c-1.7,0-1.7,0-1.9,0.2L10.6,26v5.5l0.2,0.2
		c0.2,0.2,0.2,0.2,1.9,0.2h1.7v1.7c0,1.7,0,1.7,0.2,1.9l0.2,0.2h5.5l0.2-0.2c0.2-0.2,0.2-0.2,0.2-1.9v-1.7h1.7c1.7,0,1.7,0,1.9-0.2
		l0.2-0.2V26l-0.2-0.2c-0.2-0.2-0.2-0.2-1.9-0.2h-1.7v-1.7c0-1.7,0-1.7-0.2-1.9l-0.2-0.2h-5.5L14.6,22.1z M19.4,24.8
		c0,1.7,0,1.7,0.2,1.9c0.2,0.2,0.2,0.2,1.9,0.2h1.7v3.8h-1.7c-2.2,0-2.1-0.2-2.1,2.1v1.7h-3.8v-1.7c0-2.2,0.2-2.1-2.1-2.1h-1.7v-3.8
		h1.7c2.2,0,2.1,0.2,2.1-2.1v-1.7h3.8V24.8z"/>
</g>
</svg>
