<?xml version="1.0" encoding="utf-8"?>
<!-- Generator: Adobe Illustrator 25.4.1, SVG Export Plug-In . SVG Version: 6.00 Build 0)  -->
<svg version="1.1" id="Calque_1" xmlns="http://www.w3.org/2000/svg" xmlns:xlink="http://www.w3.org/1999/xlink" x="0px" y="0px"
	 viewBox="0 0 40 40" style="enable-background:new 0 0 40 40;" xml:space="preserve">
<style type="text/css">
	.st0{fill:#EDDDDD;}
</style>
<g id="surface1">
	<path class="st0" d="M19.5,0c-1.7,0.3-3,1.4-3.4,3L16,3.4l-2,0c-2.3,0-2.4,0-2.9,0.7c-0.3,0.4-0.5,0.8-0.5,1.6v0.5H9.1
		c-1,0-1.6,0-1.9,0.1C6,6.6,5.1,7.6,4.8,8.7C4.7,9,4.7,12.5,4.7,23.2l0,14.1l0.2,0.5c0.4,1,1.4,1.8,2.4,2c0.6,0.1,3.7,0.2,3.9,0
		c0.1,0,0.2-0.2,0.2-0.3c0.1-0.2,0.1-0.3,0-0.5c-0.1-0.1-0.2-0.3-0.3-0.3c-0.1,0-0.9,0-1.9-0.1l-1.7,0l-0.5-0.2
		c-0.5-0.3-1-0.8-1.1-1.3c-0.1-0.2-0.1-4.1-0.1-14.2C5.9,7.3,5.8,8.7,6.5,8c0.6-0.6,0.9-0.7,2.6-0.7h1.4v1.5H9.3
		c-1.5,0-1.7,0.1-1.9,0.5c-0.1,0.2-0.1,4.1-0.1,13.9l0,13.6l0.2,0.2l0.2,0.2h24.4l0.2-0.2l0.2-0.2l0-13.6c0-9.8,0-13.7-0.1-13.9
		c-0.1-0.5-0.4-0.5-1.9-0.5h-1.2V7.3h1.4c1.7,0,2,0.1,2.6,0.7c0.7,0.7,0.7-0.7,0.7,15.1c0,10.1,0,14-0.1,14.2
		c-0.1,0.5-0.6,1-1.1,1.3l-0.5,0.2l-9.7,0c-9.4,0-9.8,0-9.9,0.2c-0.2,0.2-0.2,0.6,0,0.8c0.2,0.2,0.2,0.2,9.8,0.2
		c8.4,0,9.6,0,10.1-0.1c1-0.2,2-1.1,2.4-2l0.2-0.5l0-14.1c0-10.8,0-14.2-0.1-14.5c-0.3-1.2-1.3-2.2-2.4-2.5
		c-0.3-0.1-0.9-0.1-1.9-0.1h-1.5V5.7c0-0.8-0.1-1.2-0.5-1.6c-0.5-0.6-0.6-0.6-2.9-0.7l-2,0l-0.1-0.4c-0.3-1.3-1.4-2.4-2.6-2.8
		C20.8,0.1,19.8,0,19.5,0z M21.2,1.5c0.9,0.4,1.6,1.3,1.7,2.3c0.1,0.8,0,0.8,2.7,0.8c2.3,0,2.3,0,2.5,0.2L28.2,5v5.4l-0.2,0.1
		c-0.2,0.1-0.3,0.1-1.1,0.1c-0.5,0-1,0-1.1,0.1c-0.4,0.1-0.5,0.6-0.2,0.9c0.2,0.2,0.2,0.2,1.3,0.2c0.8,0,1.2,0,1.4-0.1
		c0.6-0.2,1-0.8,1.1-1.4l0.1-0.3h2l0,13.1l0,13.1H8.6l0-13.1l0-13.1h2l0.1,0.3c0.1,0.7,0.5,1.2,1.1,1.4c0.3,0.1,1,0.1,6.3,0.1
		c5.6,0,6,0,6.1-0.1c0.2-0.2,0.2-0.5,0-0.8l-0.2-0.2l-5.9,0c-5.6,0-5.9,0-6.1-0.2c-0.1-0.1-0.1-0.4-0.1-2.8V5l0.2-0.2
		c0.2-0.2,0.2-0.2,2.5-0.2c2.7,0,2.6,0,2.7-0.8c0.1-1.2,1-2.2,2.2-2.5C19.9,1.1,20.7,1.2,21.2,1.5z"/>
	<path class="st0" d="M19.3,2.2c-1,0.4-1.3,1.5-0.9,2.5c0.8,1.7,3.4,1,3.4-0.8c0-0.7-0.4-1.3-1.1-1.6C20.2,2,19.8,2,19.3,2.2z
		 M20.4,3.4C21,4,20.2,4.8,19.6,4.3c-0.4-0.4-0.1-1.1,0.4-1.1C20.1,3.2,20.3,3.3,20.4,3.4z"/>
	<path class="st0" d="M14.2,6.6c-0.3,0.3-0.3,1.5,0,1.8c0.2,0.2,0.6,0.2,0.8,0c0.1-0.1,0.2-0.3,0.2-0.9c0-0.7,0-0.8-0.2-0.9
		C14.8,6.4,14.4,6.4,14.2,6.6z"/>
	<path class="st0" d="M25,6.6c-0.1,0.2-0.2,0.3-0.2,0.9c0,0.6,0,0.7,0.2,0.9c0.2,0.2,0.6,0.2,0.8,0C26,8.2,26.1,7.5,26,7
		C25.9,6.4,25.4,6.2,25,6.6z"/>
	<path class="st0" d="M18.3,7.5c-0.1,0.1-0.2,0.2-0.2,0.4c0,0.5,1,1.2,1.9,1.2s1.9-0.6,1.9-1.2c0-0.5-0.6-0.7-1.1-0.3
		c-0.2,0.1-0.4,0.2-0.6,0.3c-0.4,0.1-0.8,0-1.1-0.3C18.8,7.3,18.5,7.3,18.3,7.5z"/>
	<path class="st0" d="M18.6,13.7c-0.4,0.1-0.4,0.2-0.4,1.2v0.9h-0.9c-0.8,0-0.9,0-1.1,0.2c-0.2,0.2-0.2,0.2-0.2,1.6
		c0,1.8,0,1.8,1.2,1.8l0.9,0l0,0.9c0,1.2,0,1.2,1.8,1.2s1.8,0,1.8-1.2l0-0.9l0.9,0c1.2,0,1.2,0,1.2-1.8c0-1.4,0-1.4-0.2-1.6
		c-0.2-0.2-0.2-0.2-1.1-0.2h-0.9v-0.9c0-1.2,0.1-1.2-1.7-1.2C19.3,13.7,18.7,13.7,18.6,13.7z M20.6,15.7c0,0.8,0,0.9,0.2,1.1
		c0.2,0.2,0.3,0.2,1,0.2h0.8v1.2l-0.9,0c-1.2,0-1.2,0.1-1.2,1.2l0,0.9h-1.2l0-0.9c0-1.2-0.1-1.2-1.2-1.2l-0.9,0V17h0.8
		c0.8,0,0.8,0,1-0.2c0.2-0.2,0.2-0.2,0.2-1.1l0-0.9h1.2L20.6,15.7z"/>
	<path class="st0" d="M13.3,23.6c-0.4,0.2-0.5,0.6-0.2,0.9c0.2,0.2,0.3,0.2,6.9,0.2s6.7,0,6.9-0.2c0.3-0.3,0.2-0.8-0.2-0.9
		C26.2,23.5,13.6,23.5,13.3,23.6z"/>
	<path class="st0" d="M13.1,27.3c-0.2,0.2-0.2,0.5,0,0.8l0.1,0.2h13.5l0.1-0.2c0.2-0.2,0.2-0.6,0-0.8l-0.2-0.2H13.3L13.1,27.3z"/>
	<path class="st0" d="M13.2,30.8c-0.3,0.3-0.3,0.6,0,0.8c0.2,0.2,0.2,0.2,6.8,0.2s6.6,0,6.8-0.2c0.3-0.2,0.3-0.6,0-0.8l-0.2-0.2
		H13.4L13.2,30.8z"/>
</g>
</svg>
