<?xml version="1.0" encoding="utf-8"?>
<!-- Generator: Adobe Illustrator 25.4.1, SVG Export Plug-In . SVG Version: 6.00 Build 0)  -->
<svg version="1.1" id="Calque_1" xmlns="http://www.w3.org/2000/svg" xmlns:xlink="http://www.w3.org/1999/xlink" x="0px" y="0px"
	 viewBox="0 0 28 40" style="enable-background:new 0 0 28 40;" xml:space="preserve">
<style type="text/css">
	.st0{fill:#EDDDDD;}
</style>
<g id="surface1">
	<path class="st0" d="M21.4,13.3c2,0.7,4.1-0.3,4.8-2.3C27,9,25.9,6.9,24,6.2c-2-0.7-4.1,0.3-4.8,2.3C18.4,10.5,19.5,12.6,21.4,13.3
		z"/>
	<path class="st0" d="M18.6,28.8c0.2,0,0.4,0,0.5,0c0.1,0,0.2,0,0.4,0c1.5,0,2.7,0.3,3.4,0.9c0.4,0.3,0.6,0.6,0.9,1.2
		c0.2,0.5,0.4,1.3,0.4,2.4c0,0.9-0.1,2-0.4,3.3c-0.2,1,0.4,2,1.5,2.3c0.1,0,0.3,0,0.4,0c0.9,0,1.7-0.6,1.9-1.5
		c0.3-1.5,0.5-2.9,0.5-4.1c0-1.4-0.2-2.7-0.7-3.8c-0.4-1-1-1.8-1.8-2.5c-0.3,0.3-0.7,0.4-1.1,0.4c-0.4,0-0.8-0.2-1.1-0.4
		c-0.7-0.6-1.2-1.2-1.7-1.8c-0.2,0-0.4-0.1-0.6-0.1c0-0.2,0-0.4,0.1-0.5c-2.2-2.9-2.4-5.5-2.4-6.6c0-1.1,0.2-1.8,0.3-2
		c0.2-0.7,0.9-1.2,1.6-1.2c0.2,0,0.3,0,0.5,0.1c0.9,0.3,1.4,1.2,1.1,2.1l0,0c0,0,0,0.1,0,0.2c0,0.2-0.1,0.4-0.1,0.8
		c0,0.6,0.1,1.2,0.3,1.8c0.2-0.5,0.3-1.1,0.5-1.5c0.7-1.6,0.2-3.6-1.1-4.1c-1.4-0.5-3.5,0-4.7,2.4c-1.5,3.2-2,5.3-2,9
		C15.2,28.2,17,28.6,18.6,28.8z"/>
	<path class="st0" d="M21.7,17.1c0-0.1,0-0.2,0-0.2c0,0,0,0,0,0c0.2-0.7-0.2-1.4-0.9-1.7c-0.7-0.2-1.5,0.2-1.7,0.9
		c0,0.1-0.2,0.8-0.2,1.9c0,1.5,0.4,3.7,2.1,6.2c0.3,0.4,0.6,0.8,1,1.2c0.4,0.5,0.9,1,1.4,1.4c0.3,0.2,0.6,0.3,0.9,0.3
		c0.3,0,0.6-0.1,0.9-0.3c0,0,0.1-0.1,0.1-0.1c0.5-0.5,0.5-1.4-0.1-1.9c-1.9-1.7-2.8-3.2-3.2-4.5c-0.3-0.9-0.4-1.7-0.4-2.3
		C21.6,17.6,21.7,17.3,21.7,17.1z"/>
	<path class="st0" d="M1.8,23.9l0.5,13.5c0,1.1,1,2,2.1,2c0,0,0,0,0.1,0c1.2,0,2.1-1,2-2.1L6,23c0-0.3,0.1-0.6,0.1-1
		c-0.2-1.9,0.2-4.1,0.7-6c-0.5-0.3-1-0.6-1.3-0.9c-1.6-1.2-2.1-2.3-2.1-2.4c-0.2-0.4-0.2-0.9,0-1.3c0.2-0.4,0.5-0.7,0.9-0.9
		c0.2-0.1,0.4-0.1,0.7-0.1c0.7,0,1.3,0.4,1.5,1l0,0c0,0,0.1,0.1,0.1,0.2c0.2,0.2,0.5,0.5,1,0.9c0,0,0.1,0.1,0.1,0.1
		C7.8,11.2,7.2,9.9,6,9.5c-1.4-0.4-3.5,0.2-4.5,2.6c-1.3,3.3-1.7,5.4-1.5,9.1C0.3,22.8,1,23.6,1.8,23.9z"/>
	<path class="st0" d="M19.8,39.2h1.7l-0.7-8v-1.4h-7.6v1.4l-0.7,8h1.7l0.3-3.7h5L19.8,39.2z M14.6,34.7l0.3-3.3h4.3l0.3,3.3H14.6z"
		/>
	<path class="st0" d="M14.8,15.4C14.8,15.4,14.8,15.4,14.8,15.4c-0.4-0.7-1.3-1.9-3.1-3.2c0,0,0,0,0,0c-0.8-1.8-1.3-3.4-1.5-4.6
		c0.3-0.4,0.6-0.8,0.8-1.3c0.3-0.8,0.3-1.6,0-2.4c0.5-0.3,0.9-0.8,1-1.4c0.1-1-0.6-1.8-1.6-2C9.7,0.5,9,0.8,8.7,1.4
		c-1-0.3-2.1-0.2-3,0.2L8.5,2c0,0,0,0.1,0,0.1c0,0.2,0,0.4,0,0.6L4.8,2.3c-0.4,0.4-0.8,0.9-1,1.5C3.2,5.7,4.2,7.8,6.2,8.5
		c0.3,0.1,0.6,0.2,1,0.2c0.8,1.1,1.9,2.4,3.5,3.5c1.4,1,2.3,1.9,2.9,2.6c0.1,0,0.1,0,0.2,0C14.2,14.8,14.6,15.1,14.8,15.4z M8.8,2.2
		c0,0,0-0.1,0-0.1C8.9,1.9,9,1.7,9,1.6c0.3-0.4,0.8-0.7,1.4-0.6c0.8,0.1,1.3,0.8,1.2,1.5c-0.1,0.5-0.3,0.8-0.7,1
		c-0.2,0.1-0.5,0.2-0.8,0.2c-0.6-0.1-1-0.5-1.2-1C8.8,2.5,8.8,2.4,8.8,2.2z M7.9,8.7C8.6,8.6,9.1,8.4,9.6,8c0.2,1,0.6,2.1,1.1,3.4
		C9.5,10.5,8.6,9.6,7.9,8.7z"/>
	<path class="st0" d="M15.2,16.4c0,0.1,0,0.2,0,0.3c-0.1,0.5-0.3,0.9-0.7,1.1c0.1,0.2,0.3,0.3,0.5,0.4c0.6,0.2,1.6-2.7,1-2.9
		c-0.3-0.1-0.7,0-1,0.2c0.1,0.1,0.2,0.3,0.2,0.4C15.1,16,15.2,16.2,15.2,16.4z"/>
	<path class="st0" d="M6.2,11.8c-0.1-0.1-0.1-0.2-0.2-0.2c0,0,0,0,0,0c-0.3-0.7-1.1-0.9-1.8-0.7c-0.7,0.3-1,1.1-0.7,1.7
		c0.1,0.2,0.6,1.2,2,2.3c0.4,0.3,0.8,0.5,1.2,0.8c1.5,0.8,3.6,1.6,6.4,2c0.1,0,0.1,0,0.2,0c0.3,0,0.6-0.1,0.8-0.2
		c0.3-0.2,0.5-0.5,0.5-0.9c0-0.1,0-0.1,0-0.2c0-0.3-0.1-0.5-0.2-0.7c-0.2-0.3-0.4-0.5-0.8-0.6c-0.1,0-0.1,0-0.2,0
		c-3.1-0.5-5-1.4-6.1-2.1c-0.1-0.1-0.2-0.1-0.3-0.2C6.7,12.4,6.4,12,6.2,11.8z"/>
</g>
</svg>
