<?xml version="1.0" encoding="utf-8"?>
<!-- Generator: Adobe Illustrator 25.4.1, SVG Export Plug-In . SVG Version: 6.00 Build 0)  -->
<svg version="1.1" id="Calque_1" xmlns="http://www.w3.org/2000/svg" xmlns:xlink="http://www.w3.org/1999/xlink" x="0px" y="0px"
	 viewBox="0 0 40 40" style="enable-background:new 0 0 40 40;" xml:space="preserve">
<style type="text/css">
	.st0{fill:#EDDDDD;}
</style>
<g id="surface1">
	<path class="st0" d="M18.1,7.9c-0.9,0.2-1.6,0.6-2.2,1.3c-0.7,0.7-1,1.2-1.3,2c-0.2,0.5-0.2,0.6-0.2,2.9s0,2.3,0.2,2.9
		c0.3,0.8,0.6,1.3,1.3,2c0.7,0.7,1.4,1.1,2.3,1.3c0.6,0.2,3,0.2,3.7,0c0.9-0.2,1.6-0.6,2.3-1.3c0.7-0.7,1-1.2,1.3-2
		c0.2-0.5,0.2-0.6,0.2-2.9s0-2.3-0.2-2.9c-0.3-0.8-0.6-1.3-1.3-2c-0.7-0.7-1.4-1.1-2.3-1.3C21.2,7.7,18.7,7.7,18.1,7.9z M22.2,9.3
		c1.1,0.5,1.8,1.5,2.1,2.6c0,0.2,0.1,0.5,0,0.6c-0.1,0.2-1.2,0.4-1.9,0.3c-1.1-0.1-1.9-0.4-2.7-1.2c-0.5-0.5-0.8-0.5-1.1-0.2
		c-0.2,0.2-0.2,0.3-0.2,0.5c0,0.3,0,0.3-0.4,0.5c-0.5,0.3-1.3,0.6-1.9,0.6l-0.5,0v-0.5c0-1.6,1.1-3.1,2.7-3.6C18.5,9,19.1,9,20.1,9
		l1.5,0L22.2,9.3z M20.2,13.5c0.2,0.1,1,0.4,1.5,0.5c0.8,0.2,1.9,0.1,2.6-0.1c0.1,0,0.1,0,0.1,1c0,1.1-0.1,1.8-0.5,2.4
		c-0.4,0.6-1,1.1-1.6,1.5l-0.6,0.3h-3.2l-0.6-0.3c-0.4-0.2-0.8-0.5-1-0.8c-0.8-0.8-1.1-1.6-1.1-2.9v-0.8l0.6-0.1
		c1-0.1,2.1-0.5,2.9-1l0.3-0.2l0.4,0.2C20,13.4,20.2,13.5,20.2,13.5z"/>
	<path class="st0" d="M13.7,21.1c-1.3,0.2-2.5,0.4-2.7,0.5c-1.5,0.6-2.7,1.8-3.3,3.3l-0.2,0.7l0,3.1c0,3.1,0,3.1,0.1,3.3l0.2,0.2
		h24.4l0.2-0.2c0.2-0.2,0.2-0.2,0.1-3.3l0-3.1l-0.2-0.7c-0.6-1.6-1.8-2.8-3.3-3.3c-0.6-0.2-5.3-0.9-5.6-0.8c-0.2,0-0.5,0.5-1.7,2.4
		c-0.8,1.3-1.6,2.4-1.6,2.4s-0.8-1.1-1.6-2.4s-1.6-2.4-1.7-2.4C16.5,20.7,16,20.8,13.7,21.1z M17.9,24.7c1.8,2.8,1.9,2.9,2.4,2.7
		c0.2-0.1,1.5-2,3.6-5.3c0-0.1,0.6,0,2.2,0.2c1.2,0.2,2.3,0.3,2.4,0.4c1.2,0.4,2.2,1.3,2.6,2.5c0.2,0.4,0.2,0.6,0.2,3.1l0,2.6H8.8
		v-2.4c0-1.9,0-2.5,0.1-2.9c0.3-1.2,1-2.1,2.1-2.7c0.6-0.3,0.7-0.3,2.8-0.6c1.2-0.2,2.3-0.3,2.3-0.3C16.1,22,16.9,23.2,17.9,24.7z"
		/>
	<path class="st0" d="M25.8,25.3c-0.1,0.1-0.2,0.3-0.2,0.6v0.4l-0.4,0c-0.4,0-0.5,0.1-0.6,0.2c-0.2,0.3-0.2,0.5,0,0.8
		c0.1,0.2,0.2,0.2,0.6,0.2l0.4,0l0,0.4c0,0.4,0.1,0.5,0.2,0.6c0.3,0.2,0.5,0.2,0.8,0c0.2-0.1,0.2-0.3,0.2-0.6l0-0.4h0.4
		c0.4,0,0.4,0,0.6-0.2c0.4-0.5,0.1-1-0.6-1l-0.4,0l0-0.4C26.8,25.2,26.2,24.8,25.8,25.3z"/>
</g>
</svg>
