<?xml version="1.0" encoding="utf-8"?>
<!-- Generator: Adobe Illustrator 25.4.1, SVG Export Plug-In . SVG Version: 6.00 Build 0)  -->
<svg version="1.1" id="Calque_1" xmlns="http://www.w3.org/2000/svg" xmlns:xlink="http://www.w3.org/1999/xlink" x="0px" y="0px"
	 viewBox="0 0 50 50" style="enable-background:new 0 0 50 50;" xml:space="preserve">
<style type="text/css">
	.st0{fill:none;stroke:#EDDDDD;stroke-width:3.125;stroke-linecap:round;stroke-linejoin:round;stroke-miterlimit:15.625;}
</style>
<g id="surface1">
	<path class="st0" d="M37.5,18c0,3-2.4,5.5-5.5,5.5S26.6,21,26.6,18s2.4-5.5,5.5-5.5S37.5,14.9,37.5,18z"/>
	<path class="st0" d="M27.2,20.6l-3.8,3.9c-1.2,1.2-3.1,1.2-4.4,0l-4.4-4.4c-1.2-1.2-1.2-3.1,0-4.4L25.8,4.7l8.3,8.3"/>
	<path class="st0" d="M37.2,15.9c4.8,2.7,8.1,7.8,8.1,13.8c0,8.6-7,15.6-15.6,15.6h-25v-3.1c0-1.7,1.4-3.1,3.1-3.1h15.6l6.2,6.2"/>
	<path class="st0" d="M35.6,22c2.3,1.7,3.8,4.5,3.8,7.7c0,5.3-4.4,9.4-9.7,9.4h-6.2"/>
	<path class="st0" d="M19.1,24.5l-3.4,3.3c-0.6,0.6-1.6,0.6-2.2,0l-2.2-2.2c-0.6-0.6-0.6-1.6,0-2.2l3.4-3.4"/>
	<path class="st0" d="M26.9,5.8l2.7-2.7c0.6-0.6,1.6-0.6,2.2,0L35,6.4C35.6,7,35.6,8,35,8.6l-2.7,2.7"/>
</g>
</svg>
