<?xml version="1.0" encoding="utf-8"?>
<!-- Generator: Adobe Illustrator 25.4.1, SVG Export Plug-In . SVG Version: 6.00 Build 0)  -->
<svg version="1.1" id="Calque_1" xmlns="http://www.w3.org/2000/svg" xmlns:xlink="http://www.w3.org/1999/xlink" x="0px" y="0px"
	 viewBox="0 0 40 40" style="enable-background:new 0 0 40 40;" xml:space="preserve">
<style type="text/css">
	.st0{fill:#EDDDDD;}
</style>
<g id="surface1">
	<path class="st0" d="M22.5,1.5c-0.7,0.2-1.4,0.7-1.7,1.3C20.7,3,20,5,19.4,7.2l-1.2,4.1l0-1.6c0-1.3-0.1-1.7-0.2-1.9
		c-0.2-0.3-0.4-0.6-0.7-0.7c-0.1-0.1-2.1-0.1-6-0.1H5.4L5.1,7.2C4.9,7.3,4.8,7.5,4.6,7.7C4.5,8.1,4.5,8.1,4.5,9.8
		c0,1.6,0,1.8,0.2,2.1c0.2,0.3,0.7,0.7,1,0.7c0.1,0,0.1,0.1,0.1,0.4l0,0.4l-0.6,0.3c-0.6,0.3-0.6,0.3-1.7,1.8
		c-1.3,1.7-1.6,2.2-1.7,3c-0.1,0.3-0.1,3.3-0.1,9.3l0,8.8L1.9,37c0.3,0.6,0.8,1.1,1.4,1.4l0.4,0.2h15.2l0.4-0.2
		c0.5-0.2,1.1-0.8,1.3-1.2c0.1-0.2,0.2-0.4,0.2-0.4s1.4,0.4,3.1,0.9c3.5,1.1,3.8,1.1,4.6,0.7c0.6-0.3,1.1-0.8,1.4-1.3
		c0.1-0.2,2.1-6.7,4.4-14.5c4.1-13.7,4.2-14.1,4.2-14.8c0-0.8-0.1-1.2-0.6-1.7c-0.6-0.7,0-0.4-9.1-3.2C23.6,1.4,23.1,1.3,22.5,1.5z
		 M29.9,4.6c3.8,1.1,6.6,2,6.7,2.1C37,6.9,37.3,7.6,37.2,8c-0.1,0.5-8.4,28.5-8.6,28.7c-0.2,0.4-0.7,0.6-1.2,0.6
		c-0.2,0-1.4-0.3-3.5-0.9l-3.1-0.9l0-5.2l0-5.2l0.3-0.1c1-0.2,1.7-1.1,1.6-2.2c0-0.4-0.1-0.6-0.6-1.5c-0.4-0.7-0.7-1.1-0.9-1.4
		l-0.4-0.4l0-0.7c-0.1-1.1-0.2-1.4-1.4-3l-1-1.4L20.1,9c1.8-5.9,1.8-5.9,2.3-6.2c0.2-0.1,0.4-0.1,0.7-0.1
		C23.3,2.7,25.3,3.2,29.9,4.6z M16.8,9.8v1.6H5.7l0-1.5c0-0.8,0-1.5,0-1.6c0-0.1,1.1-0.1,5.6-0.1l5.6,0V9.8z M17.7,12.8
		c-0.1,0.5-0.3,0.8-0.3,0.8s-0.2,0-0.3-0.1c-0.2-0.1-0.2-0.1-0.2-0.5c0-0.4,0-0.4,0.2-0.5c0.1,0,0.4-0.2,0.5-0.3
		c0.2-0.2,0.3-0.3,0.3-0.3C18,11.9,17.9,12.3,17.7,12.8z M15.7,13v0.4l-4.4,0l-4.4,0v-0.9l4.4,0l4.4,0V13z M16.9,14.7
		c0.3,0.2,2.2,2.6,2.6,3.3c0.1,0.3,0.2,0.6,0.2,1.1l0,0.7H2.9l0-0.7c0-0.9,0.1-1,1.4-2.8c0.8-1,1.1-1.4,1.3-1.5
		c0.2-0.1,1.2-0.1,5.6-0.1C16.2,14.6,16.6,14.6,16.9,14.7z M19.7,27.4l0,6.4H2.9V20.9l8.4,0l8.4,0L19.7,27.4z M21.4,22.4
		c0.3,0.6,0.3,0.7,0.2,1.1c-0.1,0.2-0.5,0.5-0.6,0.5c0,0,0-0.6,0-1.2C20.9,21.4,20.8,21.4,21.4,22.4z M19.7,35.5
		c0,0.3,0,0.6-0.1,0.8c-0.1,0.4-0.6,0.9-1,1c-0.2,0.1-2.4,0.1-7.5,0.1l-7.2,0l-0.4-0.2c-0.5-0.3-0.7-0.7-0.7-1.5V35l8.4,0l8.4,0
		L19.7,35.5z"/>
	<path class="st0" d="M23.2,5.7c-0.8,0.4-1.2,1-1.2,1.9c0,0.5,0,0.6,0.5,1.6c0.4,0.7,0.7,1.2,0.9,1.4c0.8,0.9,2.2,0.8,3-0.1
		c0.4-0.5,0.6-0.9,0.5-1.5c0-0.4-0.1-0.6-0.6-1.6c-0.6-1.2-1-1.6-1.5-1.8C24.3,5.5,23.6,5.5,23.2,5.7z M24.6,7
		c0.3,0.2,1.2,2,1.2,2.3c0,0.3-0.2,0.6-0.5,0.8c-0.2,0.1-0.3,0.1-0.6,0c-0.4-0.1-0.4-0.2-1.1-1.4c-0.4-0.8-0.5-1-0.4-1.2
		c0.1-0.3,0.3-0.6,0.5-0.7C24,6.7,24.4,6.8,24.6,7z"/>
	<path class="st0" d="M31.2,7.9c-0.8,0.3-1.3,0.9-1.4,1.7c-0.1,0.5,0.1,1,0.7,2.2c0.8,1.5,1.3,1.9,2.3,1.9c0.5,0,0.9-0.1,1.3-0.5
		c0.5-0.5,0.7-0.8,0.7-1.5v-0.6l-0.7-1.2c-0.7-1.4-1-1.7-1.7-1.9C32,7.8,31.6,7.8,31.2,7.9z M32.4,9.2c0.2,0.1,1.1,1.8,1.2,2.1
		c0.1,0.3-0.1,0.7-0.4,0.8c-0.3,0.2-0.7,0.2-1,0c-0.3-0.2-1.2-2-1.2-2.3C31,9.2,31.8,8.9,32.4,9.2z"/>
	<path class="st0" d="M21.2,12.6c-0.8,0.3-1.3,1.1-1.3,2c0,0.4,0.1,0.6,0.4,1.2c0.9,1.7,1.1,2,1.8,2.3c0.8,0.3,1.7,0,2.2-0.6
		c0.4-0.4,0.5-0.8,0.5-1.4c0-0.4-0.1-0.6-0.6-1.5c-0.7-1.3-0.8-1.5-1.3-1.8C22.6,12.5,21.7,12.4,21.2,12.6z M22.4,13.8
		c0.3,0.2,1.3,2,1.3,2.4c0,0.3-0.2,0.6-0.5,0.7c-0.6,0.3-0.9,0.1-1.6-1.1c-0.5-1-0.6-1.2-0.4-1.6C21.4,13.7,22,13.6,22.4,13.8z"/>
	<path class="st0" d="M29.2,14.9c-0.9,0.3-1.4,1-1.4,1.9c0,0.5,0,0.5,0.6,1.7c0.7,1.4,1,1.7,1.7,1.9c0.5,0.2,0.7,0.2,1.2,0
		c0.8-0.2,1.4-1.1,1.4-2c0-0.4,0-0.6-0.6-1.6c-0.8-1.5-1.1-1.9-2.1-2C29.7,14.8,29.5,14.8,29.2,14.9z M30.3,16.2
		c0.3,0.3,1.1,1.8,1.1,2.2c0,0.4,0,0.4-0.2,0.6c-0.2,0.2-0.3,0.2-0.6,0.2c-0.5,0-0.6-0.2-1.2-1.2c-0.6-1.1-0.6-1.4-0.2-1.8
		C29.5,15.9,30,15.9,30.3,16.2z"/>
	<path class="st0" d="M26.8,22c-0.8,0.4-1.3,1.3-1.2,2.1c0,0.4,0.9,2.1,1.3,2.6c0.4,0.5,0.9,0.8,1.6,0.8c0.7,0,1-0.2,1.5-0.6
		c0.5-0.5,0.7-1.5,0.5-2.1c-0.2-0.5-1.1-2.1-1.4-2.4C28.6,21.8,27.6,21.6,26.8,22z M28.1,23.1c0.3,0.2,1.3,1.9,1.3,2.4
		c0,0.8-1,1.1-1.5,0.5c-0.3-0.4-1-1.9-1-2.1c0-0.2,0.2-0.6,0.4-0.7C27.4,22.9,27.8,22.9,28.1,23.1z"/>
	<path class="st0" d="M25.2,28.8c-1,0.3-1.6,1-1.6,2.1c0,0.4,0.1,0.6,0.6,1.5c0.7,1.3,0.8,1.5,1.4,1.8c0.4,0.2,0.5,0.2,1,0.2
		c0.5,0,0.6,0,1-0.2c0.7-0.4,1.2-1.2,1.1-2c-0.1-0.5-1.1-2.4-1.6-2.9C26.5,28.8,25.8,28.6,25.2,28.8z M26,30
		c0.2,0.1,0.4,0.3,0.8,1.1c0.6,1,0.6,1.3,0.5,1.7c-0.2,0.5-0.9,0.6-1.3,0.3c-0.2-0.2-1.2-2-1.2-2.3c0-0.3,0.2-0.6,0.5-0.8
		C25.6,29.8,25.7,29.8,26,30z"/>
	<path class="st0" d="M8.9,9.6c-0.4,0.2-0.4,0.8,0,1c0.2,0.1,0.5,0.1,2.1,0.1c1.9,0,1.9,0,2.1-0.2c0.2-0.2,0.2-0.6,0-0.8
		C13,9.6,13,9.6,11,9.5C9.6,9.5,9.1,9.6,8.9,9.6z"/>
	<path class="st0" d="M14.4,9.8c-0.3,0.3-0.3,0.5,0,0.8c0.2,0.2,0.2,0.2,0.8,0.2s0.6,0,0.8-0.2c0.2-0.3,0.2-0.5,0-0.8
		c-0.2-0.2-0.3-0.2-0.7-0.2S14.6,9.6,14.4,9.8z"/>
	<path class="st0" d="M9.2,21.9C9,22.1,9,22.1,9,23.6l0,1.5H7.5c-1.4,0-1.5,0-1.6,0.2s-0.2,0.3-0.2,2.1v2l0.2,0.2
		c0.2,0.2,0.3,0.2,1.6,0.2H9v1.4c0,1.3,0,1.4,0.2,1.6L9.3,33h1.9c1.9,0,2,0,2.1-0.2c0.1-0.2,0.2-0.3,0.2-1.6v-1.5h1.4
		c1.5,0,1.7,0,1.9-0.4c0.1-0.1,0.1-0.8,0.1-2v-1.8l-0.2-0.2c-0.2-0.2-0.2-0.2-1.7-0.2h-1.5v-1.5c0-1.5,0-1.5-0.2-1.7l-0.2-0.2h-1.9
		C9.5,21.8,9.4,21.8,9.2,21.9z M12.3,24.4c0,2-0.1,1.8,1.8,1.9l1.5,0l0,1l0,1h-1.4c-1.5,0-1.8,0.1-1.9,0.4c0,0.1,0,0.8,0,1.6v1.4
		h-2.1l0-1.5c0-2,0.1-1.8-1.9-1.9l-1.5,0v-2.1h1.5c0.8,0,1.5,0,1.6-0.1c0.2-0.1,0.3-0.5,0.3-1.9V23h2.1V24.4z"/>
</g>
</svg>
