<?xml version="1.0" encoding="utf-8"?>
<!-- Generator: Adobe Illustrator 25.4.1, SVG Export Plug-In . SVG Version: 6.00 Build 0)  -->
<svg version="1.1" id="Calque_1" xmlns="http://www.w3.org/2000/svg" xmlns:xlink="http://www.w3.org/1999/xlink" x="0px" y="0px"
	 viewBox="0 0 40 40" style="enable-background:new 0 0 40 40;" xml:space="preserve">
<style type="text/css">
	.st0{fill:#EDDDDD;}
</style>
<g id="surface1">
	<path class="st0" d="M25,4.6c1.6-0.5,3.3-0.2,4.7,0.7h0c0,0,0,0,0,0L31,6.3c0,0,0.1,0,0.1,0.1c2.9,2.1,3.9,6.5,2.3,10.1
		c0,0,0,0.1-0.1,0.1c-1.7,3.5-5.5,4.7-8.4,2.7v0v0c0,0,0,0-0.1,0c-2-1.4-3.5-2.3-4.2-5.4c-0.4-1.9-0.2-3.9,0.6-5.6
		C22,6.4,23.4,5.1,25,4.6z"/>
	<path class="st0" d="M32.8,30.2c0.9,4-1.1,8.1-4.4,9.1l-1.5,0.5c-3.3,1.1-6.7-1.3-7.6-5.3s1.1-8.1,4.4-9.1l1.5-0.5
		C28.5,23.8,31.9,26.2,32.8,30.2z"/>
	<path class="st0" d="M18.7,0.3C20.3-0.3,22,0,23.4,1c0,0,0,0,0,0L31,6.3c3,2.1,4,6.6,2.3,10.2c-1.7,3.6-5.5,4.8-8.5,2.7
		c0,0,0,0-0.1,0l-7.6-5.3h0c0,0,0,0,0,0c-2.1-1.5-3.3-4.4-3-7.4C14.5,3.5,16.3,1,18.7,0.3L18.7,0.3z M19,1.7
		c-1.9,0.6-3.3,2.6-3.6,4.9c-0.3,2.4,0.7,4.7,2.4,5.9c0,0,0,0,0,0v0l7.6,5.3c0,0,0,0,0.1,0c2.4,1.6,5.4,0.7,6.8-2.2
		c1.4-2.8,0.6-6.5-1.8-8.1l-7.6-5.3c0,0,0,0,0,0h0h0l0,0C21.6,1.5,20.3,1.3,19,1.7z"/>
	<path class="st0" d="M38.6,28.3c-0.7-3.2-3.4-5-6.1-4.2L24,26.8c-2.6,0.8-4.2,4.1-3.5,7.3c0.7,3.2,3.4,5,6.1,4.2l8.5-2.7
		C37.7,34.7,39.3,31.4,38.6,28.3z M39.8,27.9c0.9,4-1.1,8.1-4.4,9.1l-8.5,2.7c-1.6,0.5-3.3,0.2-4.7-0.8c-1.4-1-2.5-2.6-2.9-4.5
		c-0.9-4,1.1-8.1,4.4-9.1l8.5-2.7C35.5,21.6,38.9,24,39.8,27.9z"/>
	<path class="st0" d="M13.5,17.9c2.7,3.2,3.1,8.2,1,12c-2.1,3.8-6.1,5.2-9.6,3.5c-3.5-1.7-5.5-6.2-4.7-10.6c0.7-4.4,4-7.6,7.8-7.6
		C10,15.1,12,16.1,13.5,17.9z M14.6,24.6c0-3.8-2.2-7.1-5.4-7.8S3,18,1.8,21.6s-0.2,7.6,2.4,9.7c2.6,2.1,6.2,1.7,8.4-1
		C13.9,28.8,14.6,26.7,14.6,24.6z"/>
	<path class="st0" d="M3.2,17.9c-0.2-0.3-0.6-0.3-0.9,0c-0.2,0.3-0.2,0.8,0,1.1l10.3,12.4c0.2,0.3,0.6,0.3,0.9,0
		c0.2-0.3,0.2-0.8,0-1.1L3.2,17.9z"/>
</g>
</svg>
